<svg version="1.1" viewBox="0.0 0.0 575.7900262467192 195.5984251968504" fill="none" stroke="none" stroke-linecap="square" stroke-miterlimit="10" xmlns:xlink="http://www.w3.org/1999/xlink" xmlns="http://www.w3.org/2000/svg"><clipPath id="p.0"><path d="m0 0l575.79004 0l0 195.59842l-575.79004 0l0 -195.59842z" clip-rule="nonzero"/></clipPath><g clip-path="url(#p.0)"><path fill="#000000" fill-opacity="0.0" d="m0 0l575.79004 0l0 195.59842l-575.79004 0z" fill-rule="evenodd"/><path fill="#000000" fill-opacity="0.0" d="m4.8293962 2.3175852l551.37006 0l0 180.97638l-551.37006 0z" fill-rule="evenodd"/><path fill="#cc4125" d="m107.457726 139.31758l-23.734375 -32.937492q-4.671875 0.9375 -10.9375 0.9375l-28.921879 0l0 31.999992l-2.671875 0l0 -93.328125l31.593754 0q17.203125 0 26.9375 8.0625q9.734375 8.0625 9.734375 22.593754q0 11.203125 -6.0 18.734375q-6.0 7.53125 -16.9375 10.34375l24.265625 33.593742l-3.328125 0zm-34.40625 -34.531242q16.265625 0 25.0 -7.328125q8.734375 -7.34375 8.734375 -20.8125q0 -13.453129 -8.734375 -20.781254q-8.734375 -7.34375 -25.0 -7.34375l-29.187504 0l0 56.26563l29.187504 0zm119.072365 -34.40625l0 68.93749l-2.671875 0l0 -18.265617q-3.0625 8.796867 -10.265625 13.734367q-7.203125 4.9375 -17.46875 4.9375q-13.328125 0 -20.796875 -7.40625q-7.46875 -7.4062424 -7.46875 -21.265617l0 -40.671875l2.671875 0l0 40.671875q0 12.671875 6.65625 19.406242q6.671875 6.71875 18.8125 6.71875q12.921875 0 20.390625 -8.0625q7.46875 -8.062492 7.46875 -21.265617l0 -37.46875l2.671875 0z" fill-rule="nonzero"/><path fill="#434343" d="m275.0444 91.45821q23.46875 3.1875 23.46875 23.453125q0 11.875 -8.46875 18.140617q-8.46875 6.265625 -25.265625 6.265625l-39.593765 0l0 -93.328125l36.937515 0q14.65625 0 22.984375 6.0625q8.34375 6.0625 8.34375 17.531254q0 8.796875 -4.875 14.34375q-4.859375 5.53125 -13.53125 7.53125zm-47.187515 -42.937504l0 42.125004l34.79689 0q13.453125 0 20.78125 -5.390625q7.34375 -5.40625 7.34375 -15.671875q0 -10.265629 -7.34375 -15.656254q-7.328125 -5.40625 -20.78125 -5.40625l-34.79689 0zm37.45314 88.265625q30.53125 0 30.53125 -21.874992q0 -11.0625 -7.671875 -16.390625q-7.65625 -5.328125 -22.859375 -5.328125l-37.45314 0l0 43.593742l37.45314 0zm59.870117 -48.531242q2.9375 -8.796875 9.859375 -13.53125q6.9375 -4.734375 17.203125 -4.734375l0 2.65625l-0.796875 0q-12.40625 0 -19.34375 7.9375q-6.921875 7.9375 -6.921875 21.671875l0 37.062492l-2.671875 0l0 -68.93749l2.671875 0l0 17.875zm47.05948 -17.875l2.671875 0l0 68.93749l-2.671875 0l0 -68.93749zm1.34375 -19.062504q-1.46875 0 -2.46875 -1.0625q-1.0 -1.0625 -1.0 -2.40625q0 -1.46875 1.0 -2.453125q1.0 -1.0 2.46875 -1.0q1.328125 0 2.390625 1.0q1.078125 0.984375 1.078125 2.453125q0 1.34375 -1.078125 2.40625q-1.0625 1.0625 -2.390625 1.0625zm57.722687 88.40625q-9.734375 0 -17.46875 -4.46875q-7.734375 -4.46875 -12.0625 -12.406242q-4.328125 -7.9375 -4.328125 -18.0625q0 -10.140625 4.328125 -18.0625q4.328125 -7.9375 12.0625 -12.328125q7.734375 -4.40625 17.46875 -4.40625q7.609375 0 14.0625 2.875q6.46875 2.859375 10.734375 8.328125l-1.859375 2.0q-3.875 -5.34375 -9.875 -8.0q-6.0 -2.671875 -13.0625 -2.671875q-8.9375 0 -16.078125 4.0625q-7.125 4.0625 -11.125 11.46875q-4.0 7.40625 -4.0 16.734375q0 9.46875 4.0 16.796875q4.0 7.3281174 11.125 11.468742q7.140625 4.125 16.078125 4.125q7.0625 0 13.0625 -2.65625q6.0 -2.671875 9.875 -7.9999924l1.859375 1.9999924q-4.265625 5.46875 -10.734375 8.34375q-6.453125 2.859375 -14.0625 2.859375zm68.674286 -40.265617l-20.40625 18.53125l0 21.328117l-2.671875 0l0 -98.921875l2.671875 0l0 74.390625l48.671875 -44.40625l3.859375 0l-30.0 27.46875l33.0625 41.468742l-3.46875 0l-31.71875 -39.859367z" fill-rule="nonzero"/><path fill="#000000" fill-opacity="0.0" d="m51.78858 178.92389c-12.967419 0 -23.479591 -10.5121765 -23.479591 -23.479599l0 -32.58412c0 -12.9674225 -10.512173 -23.479591 -23.479595 -23.479591c12.967422 0 23.479595 -10.512169 23.479595 -23.479591l0 -32.58412l0 0c0 -12.9674225 10.512173 -23.479593 23.479591 -23.479593l475.2155 0c6.227173 0 12.19928 2.4737358 16.60254 6.877014c4.4033203 4.4032764 6.877014 10.375402 6.877014 16.60258l0 32.58412c0 12.9674225 10.512207 23.479591 23.479614 23.479591c-12.967407 0 -23.479614 10.512169 -23.479614 23.479591l0 32.58412c0 12.9674225 -10.512146 23.479599 -23.479553 23.479599z" fill-rule="evenodd"/><path fill="#000000" fill-opacity="0.0" d="m51.78858 178.92389c-12.967419 0 -23.479591 -10.5121765 -23.479591 -23.479599l0 -32.58412c0 -12.9674225 -10.512173 -23.479591 -23.479595 -23.479591c12.967422 0 23.479595 -10.512169 23.479595 -23.479591l0 -32.58412l0 0c0 -12.9674225 10.512173 -23.479593 23.479591 -23.479593m475.2155 0c6.227173 0 12.19928 2.4737358 16.60254 6.877014c4.4033203 4.4032764 6.877014 10.375402 6.877014 16.60258l0 32.58412c0 12.9674225 10.512207 23.479591 23.479614 23.479591c-12.967407 0 -23.479614 10.512169 -23.479614 23.479591l0 32.58412c0 12.9674225 -10.512146 23.479599 -23.479553 23.479599" fill-rule="evenodd"/><path stroke="#666666" stroke-width="2.0" stroke-linejoin="round" stroke-linecap="butt" d="m51.78858 178.92389c-12.967419 0 -23.479591 -10.5121765 -23.479591 -23.479599l0 -32.58412c0 -12.9674225 -10.512173 -23.479591 -23.479595 -23.479591c12.967422 0 23.479595 -10.512169 23.479595 -23.479591l0 -32.58412l0 0c0 -12.9674225 10.512173 -23.479593 23.479591 -23.479593m475.2155 0c6.227173 0 12.19928 2.4737358 16.60254 6.877014c4.4033203 4.4032764 6.877014 10.375402 6.877014 16.60258l0 32.58412c0 12.9674225 10.512207 23.479591 23.479614 23.479591c-12.967407 0 -23.479614 10.512169 -23.479614 23.479591l0 32.58412c0 12.9674225 -10.512146 23.479599 -23.479553 23.479599" fill-rule="evenodd"/><path fill="#cc4125" d="m108.83482 151.34645l38.445892 0l11.136612 11.136612l0 24.863388l-61.448822 0l0 -24.133667l0 0c0 -6.553589 5.312729 -11.866333 11.866318 -11.866333z" fill-rule="evenodd"/><path fill="#000000" fill-opacity="0.0" d="m158.41733 169.34645l258.96063 0" fill-rule="evenodd"/><path stroke="#666666" stroke-width="8.0" stroke-linejoin="round" stroke-linecap="butt" d="m158.41733 169.34645l258.96063 0" fill-rule="evenodd"/><path fill="#434343" d="m110.461945 165.09453l0 0c0 -0.96543884 0.7826309 -1.7480774 1.7480621 -1.7480774l6.992058 0l0 0c0.46361542 0 0.9082413 0.18417358 1.2360687 0.51200867c0.32782745 0.32781982 0.51200104 0.7724457 0.51200104 1.2360687l0 8.50386c0 0.96543884 -0.78263855 1.7480621 -1.7480698 1.7480621l-6.992058 0c-0.9654312 0 -1.7480621 -0.7826233 -1.7480621 -1.7480621z" fill-rule="evenodd"/><path fill="#434343" d="m134.4357 165.09453l0 0c0 -0.96543884 0.78263855 -1.7480774 1.7480621 -1.7480774l6.99205 0l0 0c0.46362305 0 0.9082489 0.18417358 1.2360687 0.51200867c0.32783508 0.32781982 0.51200867 0.7724457 0.51200867 1.2360687l0 8.50386c0 0.96543884 -0.78263855 1.7480621 -1.7480774 1.7480621l-6.99205 0c-0.9654236 0 -1.7480621 -0.7826233 -1.7480621 -1.7480621z" fill-rule="evenodd"/><path fill="#434343" d="m427.7954 151.34645l40.59836 0l10.427765 10.427765l0 25.572235l-61.448822 0l0 -25.57727l0 0c0 -5.756317 4.6664124 -10.4227295 10.422699 -10.4227295z" fill-rule="evenodd"/><path fill="#cc4125" d="m430.87402 165.09453l0 0c0 -0.96543884 0.7826233 -1.7480774 1.7480469 -1.7480774l6.9920654 0l0 0c0.46362305 0 0.90823364 0.18417358 1.236084 0.51200867c0.32781982 0.32781982 0.5119934 0.7724457 0.5119934 1.2360687l0 8.50386c0 0.96543884 -0.7826538 1.7480621 -1.7480774 1.7480621l-6.9920654 0c-0.9654236 0 -1.7480469 -0.7826233 -1.7480469 -1.7480621z" fill-rule="evenodd"/><path fill="#cc4125" d="m454.84778 165.09453l0 0c0 -0.96543884 0.7826233 -1.7480774 1.7480469 -1.7480774l6.9920654 0l0 0c0.46362305 0 0.90823364 0.18417358 1.236084 0.51200867c0.32781982 0.32781982 0.5119934 0.7724457 0.5119934 1.2360687l0 8.50386c0 0.96543884 -0.7826538 1.7480621 -1.7480774 1.7480621l-6.9920654 0c-0.9654236 0 -1.7480469 -0.7826233 -1.7480469 -1.7480621z" fill-rule="evenodd"/><path fill="#cc4125" d="m367.50656 47.87139l14.75061 0l2.7690735 2.769062l0 8.443535l-22.771637 0l0 -5.960617l0 0c0 -2.900589 2.3513794 -5.25198 5.251953 -5.25198z" fill-rule="evenodd"/><path fill="#434343" d="m367.2603 52.12337l0 0c0 -0.3565979 0.2890625 -0.6456795 0.6456604 -0.6456795l2.582672 0l0 0c0.17123413 0 0.33547974 0.0680275 0.45654297 0.18911362c0.12109375 0.121089935 0.18911743 0.28532028 0.18911743 0.45656586l0 2.7086372c0 0.35660172 -0.2890625 0.6456833 -0.6456604 0.6456833l-2.582672 0c-0.3565979 0 -0.6456604 -0.28908157 -0.6456604 -0.6456833z" fill-rule="evenodd"/><path fill="#434343" d="m376.1465 52.12337l0 0c0 -0.3565979 0.28909302 -0.6456795 0.6456909 -0.6456795l2.5826416 0l0 0c0.17126465 0 0.33547974 0.0680275 0.4565735 0.18911362c0.12109375 0.121089935 0.18911743 0.28532028 0.18911743 0.45656586l0 2.7086372c0 0.35660172 -0.28909302 0.6456833 -0.6456909 0.6456833l-2.5826416 0c-0.3565979 0 -0.6456909 -0.28908157 -0.6456909 -0.6456833z" fill-rule="evenodd"/></g></svg>