<svg version="1.1" viewBox="0.0 0.0 960.0 720.0" fill="none" stroke="none" stroke-linecap="square" stroke-miterlimit="10" xmlns:xlink="http://www.w3.org/1999/xlink" xmlns="http://www.w3.org/2000/svg"><clipPath id="p.0"><path d="m0 0l960.0 0l0 720.0l-960.0 0l0 -720.0z" clip-rule="nonzero"/></clipPath><g clip-path="url(#p.0)"><path fill="#000000" fill-opacity="0.0" d="m0 0l960.0 0l0 720.0l-960.0 0z" fill-rule="evenodd"/><path fill="#840d35" d="m182.4369 129.8689l18.479767 0l0 496.3506l-18.479767 0z" fill-rule="evenodd"/><path fill="#000000" fill-opacity="0.0" d="m228.34514 129.86482l-73.33768 0" fill-rule="evenodd"/><path stroke="#840d35" stroke-width="1.0" stroke-linejoin="round" stroke-linecap="butt" d="m228.34514 129.86482l-73.33768 0" fill-rule="evenodd"/><path fill="#000000" fill-opacity="0.0" d="m239.5284 96.949326l377.63782 0l0 137.19685l-377.63782 0z" fill-rule="evenodd"/><path fill="#840d35" d="m253.2159 134.54932l0 -18.953117l5.8281403 0q2.5 0 4.46875 1.125q1.984375 1.125 3.078125 3.203125q1.109375 2.078125 1.109375 4.71875l0 0.875q0 2.6406174 -1.09375 4.7031174q-1.078125 2.046875 -3.0625 3.1875q-1.96875 1.125 -4.453125 1.140625l-5.8750153 0zm3.9062653 -15.781242l0 12.640617l1.890625 0q2.296875 0 3.5 -1.484375q1.21875 -1.5 1.234375 -4.2968674l0 -1.0q0 -2.890625 -1.203125 -4.375q-1.1875 -1.484375 -3.5 -1.484375l-1.921875 0zm21.33957 15.781242q-0.265625 -0.5 -0.375 -1.265625q-1.375 1.53125 -3.5625 1.53125q-2.0625 0 -3.421875 -1.203125q-1.359375 -1.203125 -1.359375 -3.015625q0 -2.25 1.65625 -3.4374924q1.65625 -1.203125 4.796875 -1.21875l1.734375 0l0 -0.796875q0 -0.984375 -0.515625 -1.5625q-0.5 -0.59375 -1.578125 -0.59375q-0.9375 0 -1.484375 0.46875q-0.546875 0.453125 -0.546875 1.234375l-3.75 0q0 -1.21875 0.75 -2.25q0.75 -1.046875 2.125 -1.640625q1.390625 -0.59375 3.109375 -0.59375q2.59375 0 4.125 1.3125q1.53125 1.296875 1.53125 3.671875l0 6.1093674q0.015625 2.0 0.5625 3.03125l0 0.21875l-3.796875 0zm-3.109375 -2.609375q0.828125 0 1.53125 -0.375q0.703125 -0.375 1.046875 -1.0l0 -2.421875l-1.40625 0q-2.828125 0 -3.015625 1.953125l-0.015625 0.21875q0 0.703125 0.5 1.171875q0.5 0.453125 1.359375 0.453125zm13.744415 -14.937492l0 3.46875l2.40625 0l0 2.75l-2.40625 0l0 7.0312424q0 0.78125 0.296875 1.125q0.296875 0.328125 1.140625 0.328125q0.625 0 1.109375 -0.078125l0 2.84375q-1.109375 0.34375 -2.28125 0.34375q-3.953125 0 -4.03125 -4.0l0 -7.5937424l-2.0625 0l0 -2.75l2.0625 0l0 -3.46875l3.765625 0zm12.663147 17.546867q-0.265625 -0.5 -0.375 -1.265625q-1.375 1.53125 -3.5625 1.53125q-2.0625 0 -3.421875 -1.203125q-1.359375 -1.203125 -1.359375 -3.015625q0 -2.25 1.65625 -3.4374924q1.65625 -1.203125 4.796875 -1.21875l1.734375 0l0 -0.796875q0 -0.984375 -0.515625 -1.5625q-0.5 -0.59375 -1.578125 -0.59375q-0.9375 0 -1.484375 0.46875q-0.546875 0.453125 -0.546875 1.234375l-3.75 0q0 -1.21875 0.75 -2.25q0.75 -1.046875 2.125 -1.640625q1.390625 -0.59375 3.109375 -0.59375q2.59375 0 4.125 1.3125q1.53125 1.296875 1.53125 3.671875l0 6.1093674q0.015625 2.0 0.5625 3.03125l0 0.21875l-3.796875 0zm-3.109375 -2.609375q0.828125 0 1.53125 -0.375q0.703125 -0.375 1.046875 -1.0l0 -2.421875l-1.40625 0q-2.828125 0 -3.015625 1.953125l-0.015625 0.21875q0 0.703125 0.5 1.171875q0.5 0.453125 1.359375 0.453125zm16.116821 2.609375l0 -18.953117l5.828125 0q2.5 0 4.46875 1.125q1.984375 1.125 3.078125 3.203125q1.109375 2.078125 1.109375 4.71875l0 0.875q0 2.6406174 -1.09375 4.7031174q-1.078125 2.046875 -3.0625 3.1875q-1.96875 1.125 -4.453125 1.140625l-5.875 0zm3.90625 -15.781242l0 12.640617l1.890625 0q2.296875 0 3.5 -1.484375q1.21875 -1.5 1.234375 -4.2968674l0 -1.0q0 -2.890625 -1.203125 -4.375q-1.1875 -1.484375 -3.5 -1.484375l-1.921875 0zm17.1521 15.781242l-3.78125 0l0 -14.078117l3.78125 0l0 14.078117zm-4.0 -17.734367q0 -0.84375 0.5625 -1.390625q0.5625 -0.546875 1.546875 -0.546875q0.953125 0 1.53125 0.546875q0.578125 0.546875 0.578125 1.390625q0 0.859375 -0.578125 1.40625q-0.578125 0.546875 -1.53125 0.546875q-0.953125 0 -1.53125 -0.546875q-0.578125 -0.546875 -0.578125 -1.40625zm15.255035 17.734367q-0.265625 -0.5 -0.375 -1.265625q-1.375 1.53125 -3.5625 1.53125q-2.0625 0 -3.421875 -1.203125q-1.359375 -1.203125 -1.359375 -3.015625q0 -2.25 1.65625 -3.4374924q1.65625 -1.203125 4.796875 -1.21875l1.734375 0l0 -0.796875q0 -0.984375 -0.515625 -1.5625q-0.5 -0.59375 -1.578125 -0.59375q-0.9375 0 -1.484375 0.46875q-0.546875 0.453125 -0.546875 1.234375l-3.75 0q0 -1.21875 0.75 -2.25q0.75 -1.046875 2.125 -1.640625q1.390625 -0.59375 3.109375 -0.59375q2.59375 0 4.125 1.3125q1.53125 1.296875 1.53125 3.671875l0 6.1093674q0.015625 2.0 0.5625 3.03125l0 0.21875l-3.796875 0zm-3.109375 -2.609375q0.828125 0 1.53125 -0.375q0.703125 -0.375 1.046875 -1.0l0 -2.421875l-1.40625 0q-2.828125 0 -3.015625 1.953125l-0.015625 0.21875q0 0.703125 0.5 1.171875q0.5 0.453125 1.359375 0.453125zm8.681915 -4.5312424q0 -3.25 1.546875 -5.21875q1.546875 -1.984375 4.15625 -1.984375q2.328125 0 3.609375 1.59375l0.15625 -1.328125l3.40625 0l0 13.609367q0 1.84375 -0.84375 3.203125q-0.828125 1.375 -2.359375 2.09375q-1.515625 0.71875 -3.5625 0.71875q-1.546875 0 -3.015625 -0.625q-1.46875 -0.609375 -2.234375 -1.59375l1.671875 -2.28125q1.40625 1.5625 3.40625 1.5625q1.5 0 2.328125 -0.796875q0.84375 -0.796875 0.84375 -2.265625l0 -0.75q-1.3125 1.46875 -3.421875 1.46875q-2.546875 0 -4.125 -1.984375q-1.5625 -1.984375 -1.5625 -5.2656174l0 -0.15625zm3.765625 0.265625q0 1.9218674 0.765625 3.0156174q0.78125 1.078125 2.109375 1.078125q1.71875 0 2.46875 -1.296875l0 -5.9218674q-0.765625 -1.28125 -2.4375 -1.28125q-1.359375 0 -2.140625 1.109375q-0.765625 1.09375 -0.765625 3.296875zm15.465424 -7.203125l0.125 1.625q1.5 -1.890625 4.046875 -1.890625q2.234375 0 3.328125 1.3125q1.09375 1.3125 1.109375 3.9375l0 9.093742l-3.75 0l0 -8.999992q0 -1.203125 -0.53125 -1.734375q-0.515625 -0.546875 -1.71875 -0.546875q-1.59375 0 -2.390625 1.34375l0 9.937492l-3.765625 0l0 -14.078117l3.546875 0zm10.882172 6.90625q0 -2.09375 0.796875 -3.734375q0.8125 -1.640625 2.328125 -2.53125q1.515625 -0.90625 3.53125 -0.90625q2.84375 0 4.640625 1.75q1.8125 1.734375 2.015625 4.734375l0.03125 0.96875q0 3.2343674 -1.8125 5.2031174q-1.8125 1.953125 -4.859375 1.953125q-3.046875 0 -4.859375 -1.953125q-1.8125 -1.953125 -1.8125 -5.3124924l0 -0.171875zm3.765625 0.28125q0 1.9999924 0.75 3.0624924q0.75 1.0625 2.15625 1.0625q1.375 0 2.140625 -1.046875q0.765625 -1.0625 0.765625 -3.3593674q0 -1.96875 -0.765625 -3.046875q-0.765625 -1.078125 -2.15625 -1.078125q-1.390625 0 -2.140625 1.078125q-0.75 1.0625 -0.75 3.328125zm19.52536 2.9999924q0 -0.6875 -0.6875 -1.078125q-0.6875 -0.40625 -2.1875 -0.71875q-5.03125 -1.0468674 -5.03125 -4.2656174q0 -1.875 1.546875 -3.125q1.5625 -1.265625 4.078125 -1.265625q2.671875 0 4.28125 1.265625q1.609375 1.265625 1.609375 3.28125l-3.765625 0q0 -0.8125 -0.515625 -1.328125q-0.515625 -0.53125 -1.625 -0.53125q-0.953125 0 -1.46875 0.4375q-0.515625 0.421875 -0.515625 1.078125q0 0.625 0.578125 1.015625q0.59375 0.375 2.0 0.65625q1.40625 0.28125 2.375 0.640625q2.984375 1.09375 2.984375 3.7812424q0 1.921875 -1.65625 3.125q-1.65625 1.1875 -4.265625 1.1875q-1.78125 0 -3.15625 -0.625q-1.359375 -0.640625 -2.140625 -1.734375q-0.78125 -1.109375 -0.78125 -2.390625l3.5625 0q0.046875 1.015625 0.734375 1.546875q0.703125 0.53125 1.859375 0.53125q1.078125 0 1.625 -0.40625q0.5625 -0.421875 0.5625 -1.078125zm10.049347 3.890625l-3.78125 0l0 -14.078117l3.78125 0l0 14.078117zm-4.0 -17.734367q0 -0.84375 0.5625 -1.390625q0.5625 -0.546875 1.546875 -0.546875q0.953125 0 1.53125 0.546875q0.578125 0.546875 0.578125 1.390625q0 0.859375 -0.578125 1.40625q-0.578125 0.546875 -1.53125 0.546875q-0.953125 0 -1.53125 -0.546875q-0.578125 -0.546875 -0.578125 -1.40625zm14.723785 13.843742q0 -0.6875 -0.6875 -1.078125q-0.6875 -0.40625 -2.1875 -0.71875q-5.03125 -1.0468674 -5.03125 -4.2656174q0 -1.875 1.546875 -3.125q1.5625 -1.265625 4.078125 -1.265625q2.671875 0 4.28125 1.265625q1.609375 1.265625 1.609375 3.28125l-3.765625 0q0 -0.8125 -0.515625 -1.328125q-0.515625 -0.53125 -1.625 -0.53125q-0.953125 0 -1.46875 0.4375q-0.515625 0.421875 -0.515625 1.078125q0 0.625 0.578125 1.015625q0.59375 0.375 2.0 0.65625q1.40625 0.28125 2.375 0.640625q2.984375 1.09375 2.984375 3.7812424q0 1.921875 -1.65625 3.125q-1.65625 1.1875 -4.265625 1.1875q-1.78125 0 -3.15625 -0.625q-1.359375 -0.640625 -2.140625 -1.734375q-0.78125 -1.109375 -0.78125 -2.390625l3.5625 0q0.046875 1.015625 0.734375 1.546875q0.703125 0.53125 1.859375 0.53125q1.078125 0 1.625 -0.40625q0.5625 -0.421875 0.5625 -1.078125z" fill-rule="nonzero"/><path fill="#840d35" d="m182.4369 129.8689l18.479767 0l0 496.3506l-18.479767 0z" fill-rule="evenodd"/><path fill="#000000" fill-opacity="0.0" d="m228.34514 129.86482l-73.33768 0" fill-rule="evenodd"/><path stroke="#840d35" stroke-width="1.0" stroke-linejoin="round" stroke-linecap="butt" d="m228.34514 129.86482l-73.33768 0" fill-rule="evenodd"/><path fill="#000000" fill-opacity="0.0" d="m301.8413 309.05228l44.927307 0l0 93.38583l44.93094 0" fill-rule="evenodd"/><path stroke="#c2c2c2" stroke-width="1.0" stroke-linejoin="round" stroke-linecap="butt" d="m301.8413 309.05228l44.927307 0l0 93.38583l44.93094 0" fill-rule="evenodd"/><path fill="#000000" fill-opacity="0.0" d="m301.8413 309.05228l44.927307 0l0 -93.38583l44.93094 0" fill-rule="evenodd"/><path stroke="#c2c2c2" stroke-width="1.0" stroke-linejoin="round" stroke-linecap="butt" d="m301.8413 309.05228l44.927307 0l0 -93.38583l44.93094 0" fill-rule="evenodd"/><path fill="#000000" fill-opacity="0.0" d="m565.2462 215.67828l37.504333 0l0 -45.606293l37.519287 0" fill-rule="evenodd"/><path stroke="#c2c2c2" stroke-width="1.0" stroke-linejoin="round" stroke-linecap="butt" d="m565.2462 215.67828l37.504333 0l0 -45.606293l37.519287 0" fill-rule="evenodd"/><path fill="#000000" fill-opacity="0.0" d="m565.2462 215.67828l37.504333 0l0 44.15747l37.519287 0" fill-rule="evenodd"/><path stroke="#c2c2c2" stroke-width="1.0" stroke-linejoin="round" stroke-linecap="butt" d="m565.2462 215.67828l37.504333 0l0 44.15747l37.519287 0" fill-rule="evenodd"/><path fill="#000000" fill-opacity="0.0" d="m565.2462 402.42627l37.504333 0l0 -45.606323l37.519287 0" fill-rule="evenodd"/><path stroke="#c2c2c2" stroke-width="1.0" stroke-linejoin="round" stroke-linecap="butt" d="m565.2462 402.42627l37.504333 0l0 -45.606323l37.519287 0" fill-rule="evenodd"/><path fill="#000000" fill-opacity="0.0" d="m565.2462 402.42627l37.504333 0l0 45.606293l37.519287 0" fill-rule="evenodd"/><path stroke="#c2c2c2" stroke-width="1.0" stroke-linejoin="round" stroke-linecap="butt" d="m565.2462 402.42627l37.504333 0l0 45.606293l37.519287 0" fill-rule="evenodd"/><path fill="#000000" fill-opacity="0.0" d="m662.5199 159.45448l0 0c0 -2.9311066 2.3761597 -5.307251 5.307251 -5.307251l140.67023 0c1.4075928 0 2.7575073 0.5591583 3.7528076 1.5544586c0.9953003 0.9953003 1.5544434 2.34523 1.5544434 3.7527924l0 21.228409c0 2.9311218 -2.3760986 5.307266 -5.307251 5.307266l-140.67023 0c-2.9310913 0 -5.307251 -2.3761444 -5.307251 -5.307266z" fill-rule="evenodd"/><path fill="#980000" d="m686.83997 171.61119l0 5.9375l-2.0 0l0 -15.15625l5.59375 0q2.484375 0 3.890625 1.265625q1.40625 1.265625 1.40625 3.359375q0 2.203125 -1.375 3.40625q-1.375 1.1875 -3.953125 1.1875l-3.5625 0zm0 -1.640625l3.59375 0q1.59375 0 2.453125 -0.75q0.859375 -0.75 0.859375 -2.1875q0 -1.34375 -0.859375 -2.15625q-0.859375 -0.8125 -2.34375 -0.84375l-3.703125 0l0 5.9375zm16.595703 -1.96875q-0.4375 -0.0625 -0.953125 -0.0625q-1.890625 0 -2.5625 1.609375l0 8.0l-1.9375 0l0 -11.265625l1.875 0l0.03125 1.296875q0.953125 -1.5 2.6875 -1.5q0.5625 0 0.859375 0.140625l0 1.78125zm6.253418 9.75q-2.296875 0 -3.734375 -1.5q-1.4375 -1.5 -1.4375 -4.03125l0 -0.34375q0 -1.6875 0.640625 -3.0q0.640625 -1.3125 1.78125 -2.046875q1.15625 -0.75 2.5 -0.75q2.203125 0 3.421875 1.453125q1.21875 1.4375 1.21875 4.125l0 0.8125l-7.640625 0q0.046875 1.65625 0.96875 2.6875q0.9375 1.03125 2.375 1.03125q1.03125 0 1.734375 -0.421875q0.703125 -0.421875 1.234375 -1.109375l1.1875 0.921875q-1.421875 2.171875 -4.25 2.171875zm-0.25 -10.09375q-1.15625 0 -1.953125 0.84375q-0.796875 0.84375 -0.984375 2.375l5.65625 0l0 -0.140625q-0.09375 -1.46875 -0.796875 -2.265625q-0.703125 -0.8125 -1.921875 -0.8125zm6.3930664 4.15625q0 -2.59375 1.234375 -4.15625q1.234375 -1.578125 3.21875 -1.578125q1.984375 0 3.140625 1.34375l0 -5.875l1.921875 0l0 16.0l-1.765625 0l-0.09375 -1.203125q-1.15625 1.40625 -3.21875 1.40625q-1.96875 0 -3.203125 -1.59375q-1.234375 -1.609375 -1.234375 -4.1875l0 -0.15625zm1.9375 0.21875q0 1.921875 0.78125 3.015625q0.796875 1.078125 2.1875 1.078125q1.84375 0 2.6875 -1.65625l0 -5.171875q-0.875 -1.59375 -2.65625 -1.59375q-1.421875 0 -2.21875 1.09375q-0.78125 1.09375 -0.78125 3.234375zm12.65332 5.515625l-1.921875 0l0 -11.265625l1.921875 0l0 11.265625zm-2.078125 -14.25q0 -0.46875 0.28125 -0.796875q0.296875 -0.328125 0.859375 -0.328125q0.5625 0 0.84375 0.328125q0.296875 0.328125 0.296875 0.796875q0 0.46875 -0.296875 0.78125q-0.28125 0.3125 -0.84375 0.3125q-0.5625 0 -0.859375 -0.3125q-0.28125 -0.3125 -0.28125 -0.78125zm9.691467 12.890625q1.03125 0 1.796875 -0.625q0.765625 -0.625 0.859375 -1.5625l1.8125 0q-0.046875 0.96875 -0.671875 1.84375q-0.609375 0.875 -1.640625 1.390625q-1.015625 0.515625 -2.15625 0.515625q-2.3125 0 -3.671875 -1.53125q-1.359375 -1.53125 -1.359375 -4.203125l0 -0.328125q0 -1.640625 0.609375 -2.921875q0.609375 -1.28125 1.734375 -1.984375q1.125 -0.703125 2.671875 -0.703125q1.890625 0 3.140625 1.140625q1.265625 1.125 1.34375 2.9375l-1.8125 0q-0.09375 -1.09375 -0.84375 -1.796875q-0.734375 -0.703125 -1.828125 -0.703125q-1.46875 0 -2.28125 1.0625q-0.796875 1.046875 -0.796875 3.046875l0 0.359375q0 1.953125 0.796875 3.015625q0.796875 1.046875 2.296875 1.046875zm9.25769 -12.640625l0 2.734375l2.09375 0l0 1.484375l-2.09375 0l0 6.984375q0 0.6875 0.28125 1.03125q0.28125 0.328125 0.953125 0.328125q0.328125 0 0.921875 -0.125l0 1.5625q-0.765625 0.203125 -1.484375 0.203125q-1.296875 0 -1.953125 -0.78125q-0.65625 -0.78125 -0.65625 -2.21875l0 -6.984375l-2.046875 0l0 -1.484375l2.046875 0l0 -2.734375l1.9375 0zm6.435791 14.0l-1.921875 0l0 -11.265625l1.921875 0l0 11.265625zm-2.078125 -14.25q0 -0.46875 0.28125 -0.796875q0.296875 -0.328125 0.859375 -0.328125q0.5625 0 0.84375 0.328125q0.296875 0.328125 0.296875 0.796875q0 0.46875 -0.296875 0.78125q-0.28125 0.3125 -0.84375 0.3125q-0.5625 0 -0.859375 -0.3125q-0.28125 -0.3125 -0.28125 -0.78125zm4.6602173 8.515625q0 -1.65625 0.640625 -2.984375q0.65625 -1.328125 1.8125 -2.03125q1.171875 -0.71875 2.65625 -0.71875q2.296875 0 3.71875 1.59375q1.421875 1.578125 1.421875 4.234375l0 0.125q0 1.65625 -0.625 2.96875q-0.625 1.296875 -1.796875 2.03125q-1.171875 0.71875 -2.703125 0.71875q-2.28125 0 -3.703125 -1.59375q-1.421875 -1.59375 -1.421875 -4.21875l0 -0.125zm1.9375 0.21875q0 1.875 0.859375 3.015625q0.875 1.140625 2.328125 1.140625q1.46875 0 2.328125 -1.15625q0.875 -1.15625 0.875 -3.21875q0 -1.859375 -0.890625 -3.0q-0.875 -1.15625 -2.328125 -1.15625q-1.421875 0 -2.296875 1.140625q-0.875 1.125 -0.875 3.234375zm12.554321 -5.75l0.0625 1.40625q1.296875 -1.609375 3.375 -1.609375q3.578125 0 3.609375 4.015625l0 7.453125l-1.9375 0l0 -7.453125q0 -1.21875 -0.546875 -1.796875q-0.546875 -0.59375 -1.703125 -0.59375q-0.9375 0 -1.65625 0.5q-0.703125 0.5 -1.09375 1.3125l0 8.03125l-1.9375 0l0 -11.265625l1.828125 0z" fill-rule="nonzero"/><path fill="#505050" d="m640.2552 170.0687l0 0c0 -4.793274 4.984131 -8.679001 11.132385 -8.679001l0 0c6.1481934 0 11.132324 3.885727 11.132324 8.679001l0 0c0 4.793274 -4.984131 8.678986 -11.132324 8.678986l0 0c-6.1482544 0 -11.132385 -3.8857117 -11.132385 -8.678986z" fill-rule="evenodd"/><path fill="#000000" fill-opacity="0.0" d="m413.9615 205.06409l0 0c0 -2.9311218 2.3761292 -5.307266 5.307251 -5.307266l140.67023 0c1.4075928 0 2.7575073 0.5591583 3.7528076 1.5544739c0.9953003 0.9953003 1.5544434 2.3452148 1.5544434 3.7527924l0 21.228409c0 2.9311066 -2.3760986 5.307251 -5.307251 5.307251l-140.67023 0c-2.9311218 0 -5.307251 -2.3761444 -5.307251 -5.307251z" fill-rule="evenodd"/><path fill="#980000" d="m447.46906 221.17392q-0.765625 1.09375 -2.15625 1.640625q-1.375 0.546875 -3.203125 0.546875q-1.859375 0 -3.296875 -0.859375q-1.4375 -0.875 -2.21875 -2.46875q-0.78125 -1.609375 -0.8125 -3.734375l0 -1.3125q0 -3.421875 1.59375 -5.3125q1.609375 -1.890625 4.5 -1.890625q2.375 0 3.8125 1.21875q1.453125 1.21875 1.78125 3.4375l-2.0 0q-0.5625 -3.0 -3.578125 -3.0q-2.015625 0 -3.046875 1.40625q-1.03125 1.40625 -1.046875 4.078125l0 1.25q0 2.546875 1.15625 4.0625q1.171875 1.5 3.171875 1.5q1.125 0 1.96875 -0.25q0.84375 -0.25 1.390625 -0.84375l0 -3.40625l-3.515625 0l0 -1.625l5.5 0l0 5.5625zm2.52771 -3.75q0 -1.65625 0.640625 -2.984375q0.65625 -1.328125 1.8125 -2.03125q1.171875 -0.71875 2.65625 -0.71875q2.296875 0 3.71875 1.59375q1.421875 1.578125 1.421875 4.234375l0 0.125q0 1.65625 -0.625 2.96875q-0.625 1.296875 -1.796875 2.03125q-1.171875 0.71875 -2.703125 0.71875q-2.28125 0 -3.703125 -1.59375q-1.421875 -1.59375 -1.421875 -4.21875l0 -0.125zm1.9375 0.21875q0 1.875 0.859375 3.015625q0.875 1.140625 2.328125 1.140625q1.46875 0 2.328125 -1.15625q0.875 -1.15625 0.875 -3.21875q0 -1.859375 -0.890625 -3.0q-0.875 -1.15625 -2.328125 -1.15625q-1.421875 0 -2.296875 1.140625q-0.875 1.125 -0.875 3.234375zm17.694946 5.515625q-0.171875 -0.328125 -0.28125 -1.1875q-1.34375 1.390625 -3.203125 1.390625q-1.671875 0 -2.734375 -0.9375q-1.0625 -0.9375 -1.0625 -2.390625q0 -1.765625 1.328125 -2.734375q1.34375 -0.96875 3.765625 -0.96875l1.875 0l0 -0.890625q0 -1.015625 -0.609375 -1.609375q-0.59375 -0.59375 -1.765625 -0.59375q-1.03125 0 -1.734375 0.515625q-0.703125 0.515625 -0.703125 1.265625l-1.9375 0q0 -0.84375 0.59375 -1.625q0.609375 -0.796875 1.625 -1.25q1.03125 -0.453125 2.265625 -0.453125q1.953125 0 3.046875 0.96875q1.109375 0.96875 1.15625 2.671875l0 5.1875q0 1.5625 0.390625 2.46875l0 0.171875l-2.015625 0zm-3.203125 -1.46875q0.90625 0 1.71875 -0.46875q0.8125 -0.46875 1.171875 -1.21875l0 -2.3125l-1.5 0q-3.546875 0 -3.546875 2.078125q0 0.90625 0.59375 1.421875q0.609375 0.5 1.5625 0.5zm9.929443 1.46875l-1.921875 0l0 -16.0l1.921875 0l0 16.0zm9.644592 -2.984375q0 -0.78125 -0.59375 -1.21875q-0.578125 -0.4375 -2.046875 -0.75q-1.453125 -0.3125 -2.3125 -0.75q-0.859375 -0.4375 -1.28125 -1.03125q-0.40625 -0.609375 -0.40625 -1.4375q0 -1.390625 1.171875 -2.34375q1.171875 -0.953125 3.0 -0.953125q1.90625 0 3.09375 0.984375q1.203125 0.984375 1.203125 2.53125l-1.9375 0q0 -0.796875 -0.671875 -1.359375q-0.671875 -0.578125 -1.6875 -0.578125q-1.0625 0 -1.65625 0.453125q-0.59375 0.453125 -0.59375 1.203125q0 0.6875 0.546875 1.046875q0.5625 0.359375 2.0 0.6875q1.453125 0.3125 2.34375 0.765625q0.890625 0.4375 1.328125 1.078125q0.4375 0.625 0.4375 1.53125q0 1.515625 -1.21875 2.421875q-1.203125 0.90625 -3.125 0.90625q-1.359375 0 -2.40625 -0.46875q-1.03125 -0.484375 -1.625 -1.34375q-0.59375 -0.859375 -0.59375 -1.859375l1.9375 0q0.046875 0.96875 0.765625 1.546875q0.734375 0.5625 1.921875 0.5625q1.09375 0 1.75 -0.4375q0.65625 -0.453125 0.65625 -1.1875z" fill-rule="nonzero"/><path fill="#414141" d="m391.69678 215.67828l0 0c0 -4.793274 4.984131 -8.678986 11.132355 -8.678986l0 0c6.148224 0 11.132355 3.8857117 11.132355 8.678986l0 0c0 4.793274 -4.984131 8.679001 -11.132355 8.679001l0 0c-6.148224 0 -11.132355 -3.885727 -11.132355 -8.679001z" fill-rule="evenodd"/><path fill="#000000" fill-opacity="0.0" d="m127.527306 298.43808l0 0c0 -2.9311218 2.3761368 -5.3072815 5.3072586 -5.3072815l140.67023 0c1.4075623 0 2.7575073 0.5591736 3.7528076 1.5544739c0.9953003 0.9953003 1.5544434 2.3452148 1.5544434 3.7528076l0 21.228394c0 2.9311218 -2.3761292 5.307251 -5.307251 5.307251l-140.67023 0c-2.9311218 0 -5.3072586 -2.3761292 -5.3072586 -5.307251z" fill-rule="evenodd"/><path fill="#980000" d="m215.86734 316.5323l0 -15.15625l4.28125 0q1.96875 0 3.484375 0.875q1.53125 0.875 2.359375 2.484375q0.828125 1.609375 0.828125 3.703125l0 0.96875q0 2.140625 -0.828125 3.765625q-0.828125 1.609375 -2.359375 2.484375q-1.53125 0.859375 -3.578125 0.875l-4.1875 0zm2.0 -13.515625l0 11.875l2.09375 0q2.3125 0 3.59375 -1.4375q1.296875 -1.4375 1.296875 -4.09375l0 -0.875q0 -2.59375 -1.21875 -4.015625q-1.203125 -1.4375 -3.4375 -1.453125l-2.328125 0zm18.642426 13.515625q-0.171875 -0.328125 -0.28125 -1.1875q-1.34375 1.390625 -3.203125 1.390625q-1.671875 0 -2.734375 -0.9375q-1.0625 -0.9375 -1.0625 -2.390625q0 -1.765625 1.328125 -2.734375q1.34375 -0.96875 3.765625 -0.96875l1.875 0l0 -0.890625q0 -1.015625 -0.609375 -1.609375q-0.59375 -0.59375 -1.765625 -0.59375q-1.03125 0 -1.734375 0.515625q-0.703125 0.515625 -0.703125 1.265625l-1.9375 0q0 -0.84375 0.59375 -1.625q0.609375 -0.796875 1.625 -1.25q1.03125 -0.453125 2.265625 -0.453125q1.953125 0 3.046875 0.96875q1.109375 0.96875 1.15625 2.671875l0 5.1875q0 1.5625 0.390625 2.46875l0 0.171875l-2.015625 0zm-3.203125 -1.46875q0.90625 0 1.71875 -0.46875q0.8125 -0.46875 1.171875 -1.21875l0 -2.3125l-1.5 0q-3.546875 0 -3.546875 2.078125q0 0.90625 0.59375 1.421875q0.609375 0.5 1.5625 0.5zm10.460709 -12.53125l0 2.734375l2.09375 0l0 1.484375l-2.09375 0l0 6.984375q0 0.6875 0.28125 1.03125q0.28125 0.328125 0.953125 0.328125q0.328125 0 0.921875 -0.125l0 1.5625q-0.765625 0.203125 -1.484375 0.203125q-1.296875 0 -1.953125 -0.78125q-0.65625 -0.78125 -0.65625 -2.21875l0 -6.984375l-2.046875 0l0 -1.484375l2.046875 0l0 -2.734375l1.9375 0zm11.310806 14.0q-0.171875 -0.328125 -0.28125 -1.1875q-1.34375 1.390625 -3.203125 1.390625q-1.671875 0 -2.734375 -0.9375q-1.0625 -0.9375 -1.0625 -2.390625q0 -1.765625 1.328125 -2.734375q1.34375 -0.96875 3.765625 -0.96875l1.875 0l0 -0.890625q0 -1.015625 -0.609375 -1.609375q-0.59375 -0.59375 -1.765625 -0.59375q-1.03125 0 -1.734375 0.515625q-0.703125 0.515625 -0.703125 1.265625l-1.9375 0q0 -0.84375 0.59375 -1.625q0.609375 -0.796875 1.625 -1.25q1.03125 -0.453125 2.265625 -0.453125q1.953125 0 3.046875 0.96875q1.109375 0.96875 1.15625 2.671875l0 5.1875q0 1.5625 0.390625 2.46875l0 0.171875l-2.015625 0zm-3.203125 -1.46875q0.90625 0 1.71875 -0.46875q0.8125 -0.46875 1.171875 -1.21875l0 -2.3125l-1.5 0q-3.546875 0 -3.546875 2.078125q0 0.90625 0.59375 1.421875q0.609375 0.5 1.5625 0.5z" fill-rule="nonzero"/><path fill="#2f2f2f" d="m279.5766 309.05228l0 0c0 -4.793274 4.984131 -8.678986 11.132355 -8.678986l0 0c6.148224 0 11.132355 3.8857117 11.132355 8.678986l0 0c0 4.793274 -4.984131 8.678986 -11.132355 8.678986l0 0c-6.148224 0 -11.132355 -3.8857117 -11.132355 -8.678986z" fill-rule="evenodd"/><path fill="#000000" fill-opacity="0.0" d="m413.9615 391.81204l0 0c0 -2.9310913 2.3761292 -5.307251 5.307251 -5.307251l140.67023 0c1.4075928 0 2.7575073 0.5591736 3.7528076 1.5544739c0.9953003 0.9953003 1.5544434 2.3452148 1.5544434 3.752777l0 21.228424c0 2.9311218 -2.3760986 5.307251 -5.307251 5.307251l-140.67023 0c-2.9311218 0 -5.307251 -2.3761292 -5.307251 -5.307251z" fill-rule="evenodd"/><path fill="#980000" d="m447.9378 402.8125q0 2.234375 -0.75 3.890625q-0.75 1.65625 -2.125 2.53125q-1.375 0.875 -3.203125 0.875q-1.796875 0 -3.1875 -0.875q-1.375 -0.875 -2.140625 -2.5q-0.765625 -1.640625 -0.78125 -3.78125l0 -1.09375q0 -2.1875 0.75 -3.859375q0.765625 -1.6875 2.15625 -2.578125q1.390625 -0.890625 3.1875 -0.890625q1.8125 0 3.203125 0.890625q1.390625 0.875 2.140625 2.546875q0.75 1.671875 0.75 3.890625l0 0.953125zm-1.984375 -0.984375q0 -2.6875 -1.09375 -4.125q-1.078125 -1.453125 -3.015625 -1.453125q-1.90625 0 -3.0 1.453125q-1.078125 1.4375 -1.109375 4.0l0 1.109375q0 2.609375 1.09375 4.109375q1.109375 1.5 3.03125 1.5q1.9375 0 3.0 -1.40625q1.0625 -1.421875 1.09375 -4.0625l0 -1.125zm14.225586 2.5625q0 2.59375 -1.1875 4.15625q-1.1875 1.5625 -3.1875 1.5625q-2.140625 0 -3.296875 -1.5l-0.09375 1.296875l-1.78125 0l0 -16.0l1.9375 0l0 5.96875q1.15625 -1.4375 3.203125 -1.4375q2.0625 0 3.234375 1.546875q1.171875 1.546875 1.171875 4.25l0 0.15625zm-1.921875 -0.21875q0 -1.96875 -0.765625 -3.03125q-0.765625 -1.078125 -2.1875 -1.078125q-1.90625 0 -2.734375 1.765625l0 4.875q0.875 1.78125 2.75 1.78125q1.390625 0 2.15625 -1.078125q0.78125 -1.078125 0.78125 -3.234375zm10.90332 2.75q0 -0.78125 -0.59375 -1.21875q-0.578125 -0.4375 -2.046875 -0.75q-1.453125 -0.3125 -2.3125 -0.75q-0.859375 -0.4375 -1.28125 -1.03125q-0.40625 -0.609375 -0.40625 -1.4375q0 -1.390625 1.171875 -2.34375q1.171875 -0.953125 3.0 -0.953125q1.90625 0 3.09375 0.984375q1.203125 0.984375 1.203125 2.53125l-1.9375 0q0 -0.796875 -0.671875 -1.359375q-0.671875 -0.578125 -1.6875 -0.578125q-1.0625 0 -1.65625 0.453125q-0.59375 0.453125 -0.59375 1.203125q0 0.6875 0.546875 1.046875q0.5625 0.359375 2.0 0.6875q1.453125 0.3125 2.34375 0.765625q0.890625 0.4375 1.328125 1.078125q0.4375 0.625 0.4375 1.53125q0 1.515625 -1.21875 2.421875q-1.203125 0.90625 -3.125 0.90625q-1.359375 0 -2.40625 -0.46875q-1.03125 -0.484375 -1.625 -1.34375q-0.59375 -0.859375 -0.59375 -1.859375l1.9375 0q0.046875 0.96875 0.765625 1.546875q0.734375 0.5625 1.921875 0.5625q1.09375 0 1.75 -0.4375q0.65625 -0.453125 0.65625 -1.1875zm7.0598145 -11.015625l0 2.734375l2.09375 0l0 1.484375l-2.09375 0l0 6.984375q0 0.6875 0.28125 1.03125q0.28125 0.328125 0.953125 0.328125q0.328125 0 0.921875 -0.125l0 1.5625q-0.765625 0.203125 -1.484375 0.203125q-1.296875 0 -1.953125 -0.78125q-0.65625 -0.78125 -0.65625 -2.21875l0 -6.984375l-2.046875 0l0 -1.484375l2.046875 0l0 -2.734375l1.9375 0zm11.310822 14.0q-0.171875 -0.328125 -0.28125 -1.1875q-1.34375 1.390625 -3.203125 1.390625q-1.671875 0 -2.734375 -0.9375q-1.0625 -0.9375 -1.0625 -2.390625q0 -1.765625 1.328125 -2.734375q1.34375 -0.96875 3.765625 -0.96875l1.875 0l0 -0.890625q0 -1.015625 -0.609375 -1.609375q-0.59375 -0.59375 -1.765625 -0.59375q-1.03125 0 -1.734375 0.515625q-0.703125 0.515625 -0.703125 1.265625l-1.9375 0q0 -0.84375 0.59375 -1.625q0.609375 -0.796875 1.625 -1.25q1.03125 -0.453125 2.265625 -0.453125q1.953125 0 3.046875 0.96875q1.109375 0.96875 1.15625 2.671875l0 5.1875q0 1.5625 0.390625 2.46875l0 0.171875l-2.015625 0zm-3.203125 -1.46875q0.90625 0 1.71875 -0.46875q0.8125 -0.46875 1.171875 -1.21875l0 -2.3125l-1.5 0q-3.546875 0 -3.546875 2.078125q0 0.90625 0.59375 1.421875q0.609375 0.5 1.5625 0.5zm12.366943 0.109375q1.03125 0 1.796875 -0.625q0.765625 -0.625 0.859375 -1.5625l1.8125 0q-0.046875 0.96875 -0.671875 1.84375q-0.609375 0.875 -1.640625 1.390625q-1.015625 0.515625 -2.15625 0.515625q-2.3125 0 -3.671875 -1.53125q-1.359375 -1.53125 -1.359375 -4.203125l0 -0.328125q0 -1.640625 0.609375 -2.921875q0.609375 -1.28125 1.734375 -1.984375q1.125 -0.703125 2.671875 -0.703125q1.890625 0 3.140625 1.140625q1.265625 1.125 1.34375 2.9375l-1.8125 0q-0.09375 -1.09375 -0.84375 -1.796875q-0.734375 -0.703125 -1.828125 -0.703125q-1.46875 0 -2.28125 1.0625q-0.796875 1.046875 -0.796875 3.046875l0 0.359375q0 1.953125 0.796875 3.015625q0.796875 1.046875 2.296875 1.046875zm8.72644 1.359375l-1.921875 0l0 -16.0l1.921875 0l0 16.0zm7.769562 0.203125q-2.2968445 0 -3.7343445 -1.5q-1.4375 -1.5 -1.4375 -4.03125l0 -0.34375q0 -1.6875 0.640625 -3.0q0.640625 -1.3125 1.78125 -2.046875q1.15625 -0.75 2.4999695 -0.75q2.203125 0 3.421875 1.453125q1.21875 1.4375 1.21875 4.125l0 0.8125l-7.6405945 0q0.046875 1.65625 0.96875 2.6875q0.9375 1.03125 2.3749695 1.03125q1.03125 0 1.734375 -0.421875q0.703125 -0.421875 1.234375 -1.109375l1.1875 0.921875q-1.421875 2.171875 -4.25 2.171875zm-0.25 -10.09375q-1.1562195 0 -1.9530945 0.84375q-0.796875 0.84375 -0.984375 2.375l5.6562195 0l0 -0.140625q-0.09375 -1.46875 -0.796875 -2.265625q-0.703125 -0.8125 -1.921875 -0.8125zm13.424377 6.90625q0 -0.78125 -0.59375 -1.21875q-0.578125 -0.4375 -2.046875 -0.75q-1.453125 -0.3125 -2.3125 -0.75q-0.859375 -0.4375 -1.28125 -1.03125q-0.40625 -0.609375 -0.40625 -1.4375q0 -1.390625 1.171875 -2.34375q1.171875 -0.953125 3.0 -0.953125q1.90625 0 3.09375 0.984375q1.203125 0.984375 1.203125 2.53125l-1.9375 0q0 -0.796875 -0.671875 -1.359375q-0.671875 -0.578125 -1.6875 -0.578125q-1.0625 0 -1.65625 0.453125q-0.59375 0.453125 -0.59375 1.203125q0 0.6875 0.546875 1.046875q0.5625 0.359375 2.0 0.6875q1.453125 0.3125 2.34375 0.765625q0.890625 0.4375 1.328125 1.078125q0.4375 0.625 0.4375 1.53125q0 1.515625 -1.21875 2.421875q-1.203125 0.90625 -3.125 0.90625q-1.359375 0 -2.40625 -0.46875q-1.03125 -0.484375 -1.625 -1.34375q-0.59375 -0.859375 -0.59375 -1.859375l1.9375 0q0.046875 0.96875 0.765625 1.546875q0.734375 0.5625 1.921875 0.5625q1.09375 0 1.75 -0.4375q0.65625 -0.453125 0.65625 -1.1875z" fill-rule="nonzero"/><path fill="#414141" d="m391.69678 402.42627l0 0c0 -4.793274 4.984131 -8.679016 11.132355 -8.679016l0 0c6.148224 0 11.132355 3.8857422 11.132355 8.679016l0 0c0 4.793274 -4.984131 8.678986 -11.132355 8.678986l0 0c-6.148224 0 -11.132355 -3.8857117 -11.132355 -8.678986z" fill-rule="evenodd"/><path fill="#000000" fill-opacity="0.0" d="m662.5199 250.67369l0 0c0 -2.9311218 2.3761597 -5.307266 5.307251 -5.307266l140.67023 0c1.4075928 0 2.7575073 0.5591583 3.7528076 1.5544586c0.9953003 0.99531555 1.5544434 2.34523 1.5544434 3.7528076l0 21.228409c0 2.9311218 -2.3760986 5.307251 -5.307251 5.307251l-140.67023 0c-2.9310913 0 -5.307251 -2.3761292 -5.307251 -5.307251z" fill-rule="evenodd"/><path fill="#980000" d="m684.83997 268.76788l0 -15.15625l4.28125 0q1.96875 0 3.484375 0.875q1.53125 0.875 2.359375 2.484375q0.828125 1.609375 0.828125 3.703125l0 0.96875q0 2.140625 -0.828125 3.765625q-0.828125 1.609375 -2.359375 2.484375q-1.53125 0.859375 -3.578125 0.875l-4.1875 0zm2.0 -13.515625l0 11.875l2.09375 0q2.3125 0 3.59375 -1.4375q1.296875 -1.4375 1.296875 -4.09375l0 -0.875q0 -2.59375 -1.21875 -4.015625q-1.203125 -1.4375 -3.4375 -1.453125l-2.328125 0zm16.361206 13.71875q-2.296875 0 -3.734375 -1.5q-1.4375 -1.5 -1.4375 -4.03125l0 -0.34375q0 -1.6875 0.640625 -3.0q0.640625 -1.3125 1.78125 -2.046875q1.15625 -0.75 2.5 -0.75q2.203125 0 3.421875 1.453125q1.21875 1.4375 1.21875 4.125l0 0.8125l-7.640625 0q0.046875 1.65625 0.96875 2.6875q0.9375 1.03125 2.375 1.03125q1.03125 0 1.734375 -0.421875q0.703125 -0.421875 1.234375 -1.109375l1.1875 0.921875q-1.421875 2.171875 -4.25 2.171875zm-0.25 -10.09375q-1.15625 0 -1.953125 0.84375q-0.796875 0.84375 -0.984375 2.375l5.65625 0l0 -0.140625q-0.09375 -1.46875 -0.796875 -2.265625q-0.703125 -0.8125 -1.921875 -0.8125zm13.424316 6.90625q0 -0.78125 -0.59375 -1.21875q-0.578125 -0.4375 -2.046875 -0.75q-1.453125 -0.3125 -2.3125 -0.75q-0.859375 -0.4375 -1.28125 -1.03125q-0.40625 -0.609375 -0.40625 -1.4375q0 -1.390625 1.171875 -2.34375q1.171875 -0.953125 3.0 -0.953125q1.90625 0 3.09375 0.984375q1.203125 0.984375 1.203125 2.53125l-1.9375 0q0 -0.796875 -0.671875 -1.359375q-0.671875 -0.578125 -1.6875 -0.578125q-1.0625 0 -1.65625 0.453125q-0.59375 0.453125 -0.59375 1.203125q0 0.6875 0.546875 1.046875q0.5625 0.359375 2.0 0.6875q1.453125 0.3125 2.34375 0.765625q0.890625 0.4375 1.328125 1.078125q0.4375 0.625 0.4375 1.53125q0 1.515625 -1.21875 2.421875q-1.203125 0.90625 -3.125 0.90625q-1.359375 0 -2.40625 -0.46875q-1.03125 -0.484375 -1.625 -1.34375q-0.59375 -0.859375 -0.59375 -1.859375l1.9375 0q0.046875 0.96875 0.765625 1.546875q0.734375 0.5625 1.921875 0.5625q1.09375 0 1.75 -0.4375q0.65625 -0.453125 0.65625 -1.1875zm8.966064 1.625q1.03125 0 1.796875 -0.625q0.765625 -0.625 0.859375 -1.5625l1.8125 0q-0.046875 0.96875 -0.671875 1.84375q-0.609375 0.875 -1.640625 1.390625q-1.015625 0.515625 -2.15625 0.515625q-2.3125 0 -3.671875 -1.53125q-1.359375 -1.53125 -1.359375 -4.203125l0 -0.328125q0 -1.640625 0.609375 -2.921875q0.609375 -1.28125 1.734375 -1.984375q1.125 -0.703125 2.671875 -0.703125q1.890625 0 3.140625 1.140625q1.265625 1.125 1.34375 2.9375l-1.8125 0q-0.09375 -1.09375 -0.84375 -1.796875q-0.734375 -0.703125 -1.828125 -0.703125q-1.46875 0 -2.28125 1.0625q-0.796875 1.046875 -0.796875 3.046875l0 0.359375q0 1.953125 0.796875 3.015625q0.796875 1.046875 2.296875 1.046875zm12.085815 -8.1875q-0.4375 -0.0625 -0.953125 -0.0625q-1.890625 0 -2.5625 1.609375l0 8.0l-1.9375 0l0 -11.265625l1.875 0l0.03125 1.296875q0.953125 -1.5 2.6875 -1.5q0.5625 0 0.859375 0.140625l0 1.78125zm3.857605 9.546875l-1.921875 0l0 -11.265625l1.921875 0l0 11.265625zm-2.078125 -14.25q0 -0.46875 0.28125 -0.796875q0.296875 -0.328125 0.859375 -0.328125q0.5625 0 0.84375 0.328125q0.296875 0.328125 0.296875 0.796875q0 0.46875 -0.296875 0.78125q-0.28125 0.3125 -0.84375 0.3125q-0.5625 0 -0.859375 -0.3125q-0.28125 -0.3125 -0.28125 -0.78125zm14.675842 8.734375q0 2.578125 -1.171875 4.15625q-1.171875 1.5625 -3.1875 1.5625q-2.046875 0 -3.21875 -1.296875l0 5.421875l-1.9375 0l0 -15.59375l1.765625 0l0.09375 1.25q1.171875 -1.453125 3.265625 -1.453125q2.03125 0 3.203125 1.53125q1.1875 1.515625 1.1875 4.25l0 0.171875zm-1.921875 -0.21875q0 -1.90625 -0.8125 -3.0q-0.8125 -1.109375 -2.21875 -1.109375q-1.75 0 -2.625 1.546875l0 5.390625q0.859375 1.546875 2.640625 1.546875q1.390625 0 2.203125 -1.09375q0.8125 -1.109375 0.8125 -3.28125zm6.9970703 -8.265625l0 2.734375l2.09375 0l0 1.484375l-2.09375 0l0 6.984375q0 0.6875 0.28125 1.03125q0.28125 0.328125 0.953125 0.328125q0.328125 0 0.921875 -0.125l0 1.5625q-0.765625 0.203125 -1.484375 0.203125q-1.296875 0 -1.953125 -0.78125q-0.65625 -0.78125 -0.65625 -2.21875l0 -6.984375l-2.046875 0l0 -1.484375l2.046875 0l0 -2.734375l1.9375 0zm6.435791 14.0l-1.921875 0l0 -11.265625l1.921875 0l0 11.265625zm-2.078125 -14.25q0 -0.46875 0.28125 -0.796875q0.296875 -0.328125 0.859375 -0.328125q0.5625 0 0.84375 0.328125q0.296875 0.328125 0.296875 0.796875q0 0.46875 -0.296875 0.78125q-0.28125 0.3125 -0.84375 0.3125q-0.5625 0 -0.859375 -0.3125q-0.28125 -0.3125 -0.28125 -0.78125zm4.6602173 8.515625q0 -1.65625 0.640625 -2.984375q0.65625 -1.328125 1.8125 -2.03125q1.171875 -0.71875 2.65625 -0.71875q2.296875 0 3.71875 1.59375q1.421875 1.578125 1.421875 4.234375l0 0.125q0 1.65625 -0.625 2.96875q-0.625 1.296875 -1.796875 2.03125q-1.171875 0.71875 -2.703125 0.71875q-2.28125 0 -3.703125 -1.59375q-1.421875 -1.59375 -1.421875 -4.21875l0 -0.125zm1.9375 0.21875q0 1.875 0.859375 3.015625q0.875 1.140625 2.328125 1.140625q1.46875 0 2.328125 -1.15625q0.875 -1.15625 0.875 -3.21875q0 -1.859375 -0.890625 -3.0q-0.875 -1.15625 -2.328125 -1.15625q-1.421875 0 -2.296875 1.140625q-0.875 1.125 -0.875 3.234375zm12.554321 -5.75l0.0625 1.40625q1.296875 -1.609375 3.375 -1.609375q3.578125 0 3.609375 4.015625l0 7.453125l-1.9375 0l0 -7.453125q0 -1.21875 -0.546875 -1.796875q-0.546875 -0.59375 -1.703125 -0.59375q-0.9375 0 -1.65625 0.5q-0.703125 0.5 -1.09375 1.3125l0 8.03125l-1.9375 0l0 -11.265625l1.828125 0z" fill-rule="nonzero"/><path fill="#505050" d="m640.2552 259.82144l0 0c0 -4.793274 4.984131 -8.679001 11.132385 -8.679001l0 0c6.1481934 0 11.132324 3.885727 11.132324 8.679001l0 0c0 4.793274 -4.984131 8.678986 -11.132324 8.678986l0 0c-6.1482544 0 -11.132385 -3.8857117 -11.132385 -8.678986z" fill-rule="evenodd"/><path fill="#000000" fill-opacity="0.0" d="m662.5199 346.20245l0 0c0 -2.9311218 2.3761597 -5.307251 5.307251 -5.307251l140.67023 0c1.4075928 0 2.7575073 0.55914307 3.7528076 1.5544434c0.9953003 0.9953003 1.5544434 2.3452454 1.5544434 3.7528076l0 21.228394c0 2.9311218 -2.3760986 5.3072815 -5.307251 5.3072815l-140.67023 0c-2.9310913 0 -5.307251 -2.3761597 -5.307251 -5.3072815z" fill-rule="evenodd"/><path fill="#980000" d="m695.9806 359.48416q-0.28125 2.40625 -1.78125 3.71875q-1.484375 1.296875 -3.953125 1.296875q-2.6875 0 -4.3125 -1.921875q-1.625 -1.921875 -1.625 -5.15625l0 -1.453125q0 -2.125 0.75 -3.71875q0.765625 -1.609375 2.140625 -2.46875q1.390625 -0.859375 3.21875 -0.859375q2.421875 0 3.875 1.359375q1.453125 1.34375 1.6875 3.71875l-2.0 0q-0.265625 -1.796875 -1.140625 -2.609375q-0.859375 -0.8125 -2.421875 -0.8125q-1.921875 0 -3.015625 1.421875q-1.078125 1.40625 -1.078125 4.015625l0 1.46875q0 2.46875 1.03125 3.9375q1.03125 1.453125 2.890625 1.453125q1.65625 0 2.546875 -0.75q0.890625 -0.765625 1.1875 -2.640625l2.0 0zm9.397644 3.703125q-1.125 1.3125 -3.3125 1.3125q-1.796875 0 -2.75 -1.046875q-0.9375 -1.046875 -0.9375 -3.09375l0 -7.328125l1.921875 0l0 7.28125q0 2.5625 2.078125 2.5625q2.21875 0 2.9375 -1.65625l0 -8.1875l1.9375 0l0 11.265625l-1.84375 0l-0.03125 -1.109375zm10.241943 -8.4375q-0.4375 -0.0625 -0.953125 -0.0625q-1.890625 0 -2.5625 1.609375l0 8.0l-1.9375 0l0 -11.265625l1.875 0l0.03125 1.296875q0.953125 -1.5 2.6875 -1.5q0.5625 0 0.859375 0.140625l0 1.78125zm8.315979 9.546875q-0.171875 -0.328125 -0.28125 -1.1875q-1.34375 1.390625 -3.203125 1.390625q-1.671875 0 -2.734375 -0.9375q-1.0625 -0.9375 -1.0625 -2.390625q0 -1.765625 1.328125 -2.734375q1.34375 -0.96875 3.765625 -0.96875l1.875 0l0 -0.890625q0 -1.015625 -0.609375 -1.609375q-0.59375 -0.59375 -1.765625 -0.59375q-1.03125 0 -1.734375 0.515625q-0.703125 0.515625 -0.703125 1.265625l-1.9375 0q0 -0.84375 0.59375 -1.625q0.609375 -0.796875 1.625 -1.25q1.03125 -0.453125 2.265625 -0.453125q1.953125 0 3.046875 0.96875q1.109375 0.96875 1.15625 2.671875l0 5.1875q0 1.5625 0.390625 2.46875l0 0.171875l-2.015625 0zm-3.203125 -1.46875q0.90625 0 1.71875 -0.46875q0.8125 -0.46875 1.171875 -1.21875l0 -2.3125l-1.5 0q-3.546875 0 -3.546875 2.078125q0 0.90625 0.59375 1.421875q0.609375 0.5 1.5625 0.5zm10.460693 -12.53125l0 2.734375l2.09375 0l0 1.484375l-2.09375 0l0 6.984375q0 0.6875 0.28125 1.03125q0.28125 0.328125 0.953125 0.328125q0.328125 0 0.921875 -0.125l0 1.5625q-0.765625 0.203125 -1.484375 0.203125q-1.296875 0 -1.953125 -0.78125q-0.65625 -0.78125 -0.65625 -2.21875l0 -6.984375l-2.046875 0l0 -1.484375l2.046875 0l0 -2.734375l1.9375 0zm6.435791 14.0l-1.921875 0l0 -11.265625l1.921875 0l0 11.265625zm-2.078125 -14.25q0 -0.46875 0.28125 -0.796875q0.296875 -0.328125 0.859375 -0.328125q0.5625 0 0.84375 0.328125q0.296875 0.328125 0.296875 0.796875q0 0.46875 -0.296875 0.78125q-0.28125 0.3125 -0.84375 0.3125q-0.5625 0 -0.859375 -0.3125q-0.28125 -0.3125 -0.28125 -0.78125zm4.6602173 8.515625q0 -1.65625 0.640625 -2.984375q0.65625 -1.328125 1.8125 -2.03125q1.171875 -0.71875 2.65625 -0.71875q2.296875 0 3.71875 1.59375q1.421875 1.578125 1.421875 4.234375l0 0.125q0 1.65625 -0.625 2.96875q-0.625 1.296875 -1.796875 2.03125q-1.171875 0.71875 -2.703125 0.71875q-2.28125 0 -3.703125 -1.59375q-1.421875 -1.59375 -1.421875 -4.21875l0 -0.125zm1.9375 0.21875q0 1.875 0.859375 3.015625q0.875 1.140625 2.328125 1.140625q1.46875 0 2.328125 -1.15625q0.875 -1.15625 0.875 -3.21875q0 -1.859375 -0.890625 -3.0q-0.875 -1.15625 -2.328125 -1.15625q-1.421875 0 -2.296875 1.140625q-0.875 1.125 -0.875 3.234375zm12.554321 -5.75l0.0625 1.40625q1.296875 -1.609375 3.375 -1.609375q3.578125 0 3.609375 4.015625l0 7.453125l-1.9375 0l0 -7.453125q0 -1.21875 -0.546875 -1.796875q-0.546875 -0.59375 -1.703125 -0.59375q-0.9375 0 -1.65625 0.5q-0.703125 0.5 -1.09375 1.3125l0 8.03125l-1.9375 0l0 -11.265625l1.828125 0z" fill-rule="nonzero"/><path fill="#505050" d="m640.2552 356.81665l0 0c0 -4.793274 4.984131 -8.678986 11.132385 -8.678986l0 0c6.1481934 0 11.132324 3.8857117 11.132324 8.678986l0 0c0 4.793274 -4.984131 8.678986 -11.132324 8.678986l0 0c-6.1482544 0 -11.132385 -3.8857117 -11.132385 -8.678986z" fill-rule="evenodd"/><path fill="#000000" fill-opacity="0.0" d="m662.5199 437.42166l0 0c0 -2.9311218 2.3761597 -5.307251 5.307251 -5.307251l140.67023 0c1.4075928 0 2.7575073 0.55914307 3.7528076 1.5544434c0.9953003 0.9953003 1.5544434 2.3452148 1.5544434 3.7528076l0 21.228394c0 2.9311218 -2.3760986 5.307251 -5.307251 5.307251l-140.67023 0c-2.9310913 0 -5.307251 -2.3761292 -5.307251 -5.307251z" fill-rule="evenodd"/><path fill="#980000" d="m686.83997 453.87524l7.1875 0l0 1.640625l-9.1875 0l0 -15.15625l2.0 0l0 13.515625zm16.13263 1.640625q-0.171875 -0.328125 -0.28125 -1.1875q-1.34375 1.390625 -3.203125 1.390625q-1.671875 0 -2.734375 -0.9375q-1.0625 -0.9375 -1.0625 -2.390625q0 -1.765625 1.328125 -2.734375q1.34375 -0.96875 3.765625 -0.96875l1.875 0l0 -0.890625q0 -1.015625 -0.609375 -1.609375q-0.59375 -0.59375 -1.765625 -0.59375q-1.03125 0 -1.734375 0.515625q-0.703125 0.515625 -0.703125 1.265625l-1.9375 0q0 -0.84375 0.59375 -1.625q0.609375 -0.796875 1.625 -1.25q1.03125 -0.453125 2.265625 -0.453125q1.953125 0 3.046875 0.96875q1.109375 0.96875 1.15625 2.671875l0 5.1875q0 1.5625 0.390625 2.46875l0 0.171875l-2.015625 0zm-3.203125 -1.46875q0.90625 0 1.71875 -0.46875q0.8125 -0.46875 1.171875 -1.21875l0 -2.3125l-1.5 0q-3.546875 0 -3.546875 2.078125q0 0.90625 0.59375 1.421875q0.609375 0.5 1.5625 0.5zm17.382568 -4.046875q0 2.59375 -1.1875 4.15625q-1.1875 1.5625 -3.1875 1.5625q-2.140625 0 -3.296875 -1.5l-0.09375 1.296875l-1.78125 0l0 -16.0l1.9375 0l0 5.96875q1.15625 -1.4375 3.203125 -1.4375q2.0625 0 3.234375 1.546875q1.171875 1.546875 1.171875 4.25l0 0.15625zm-1.921875 -0.21875q0 -1.96875 -0.765625 -3.03125q-0.765625 -1.078125 -2.1875 -1.078125q-1.90625 0 -2.734375 1.765625l0 4.875q0.875 1.78125 2.75 1.78125q1.390625 0 2.15625 -1.078125q0.78125 -1.078125 0.78125 -3.234375zm9.02832 5.9375q-2.296875 0 -3.734375 -1.5q-1.4375 -1.5 -1.4375 -4.03125l0 -0.34375q0 -1.6875 0.640625 -3.0q0.640625 -1.3125 1.78125 -2.046875q1.15625 -0.75 2.5 -0.75q2.203125 0 3.421875 1.453125q1.21875 1.4375 1.21875 4.125l0 0.8125l-7.640625 0q0.046875 1.65625 0.96875 2.6875q0.9375 1.03125 2.375 1.03125q1.03125 0 1.734375 -0.421875q0.703125 -0.421875 1.234375 -1.109375l1.1875 0.921875q-1.421875 2.171875 -4.25 2.171875zm-0.25 -10.09375q-1.15625 0 -1.953125 0.84375q-0.796875 0.84375 -0.984375 2.375l5.65625 0l0 -0.140625q-0.09375 -1.46875 -0.796875 -2.265625q-0.703125 -0.8125 -1.921875 -0.8125zm8.955627 9.890625l-1.921875 0l0 -16.0l1.921875 0l0 16.0zm5.1757812 0l-1.921875 0l0 -11.265625l1.921875 0l0 11.265625zm-2.078125 -14.25q0 -0.46875 0.28125 -0.796875q0.296875 -0.328125 0.859375 -0.328125q0.5625 0 0.84375 0.328125q0.296875 0.328125 0.296875 0.796875q0 0.46875 -0.296875 0.78125q-0.28125 0.3125 -0.84375 0.3125q-0.5625 0 -0.859375 -0.3125q-0.28125 -0.3125 -0.28125 -0.78125zm6.9883423 2.984375l0.0625 1.40625q1.296875 -1.609375 3.375 -1.609375q3.578125 0 3.609375 4.015625l0 7.453125l-1.9375 0l0 -7.453125q0 -1.21875 -0.546875 -1.796875q-0.546875 -0.59375 -1.703125 -0.59375q-0.9375 0 -1.65625 0.5q-0.703125 0.5 -1.09375 1.3125l0 8.03125l-1.9375 0l0 -11.265625l1.828125 0zm9.486694 5.53125q0 -2.625 1.21875 -4.171875q1.21875 -1.5625 3.234375 -1.5625q2.0625 0 3.21875 1.453125l0.09375 -1.25l1.75 0l0 11.0q0 2.1875 -1.296875 3.4375q-1.296875 1.265625 -3.484375 1.265625q-1.21875 0 -2.390625 -0.53125q-1.15625 -0.515625 -1.765625 -1.421875l1.0 -1.15625q1.234375 1.53125 3.03125 1.53125q1.40625 0 2.1875 -0.796875q0.78125 -0.78125 0.78125 -2.21875l0 -0.96875q-1.15625 1.328125 -3.15625 1.328125q-1.96875 0 -3.203125 -1.59375q-1.21875 -1.59375 -1.21875 -4.34375zm1.9375 0.21875q0 1.90625 0.78125 3.0q0.78125 1.09375 2.1875 1.09375q1.828125 0 2.671875 -1.65625l0 -5.15625q-0.875 -1.609375 -2.65625 -1.609375q-1.40625 0 -2.203125 1.09375q-0.78125 1.09375 -0.78125 3.234375z" fill-rule="nonzero"/><path fill="#505050" d="m640.2552 448.03586l0 0c0 -4.793274 4.984131 -8.678986 11.132385 -8.678986l0 0c6.1481934 0 11.132324 3.8857117 11.132324 8.678986l0 0c0 4.793274 -4.984131 8.678986 -11.132324 8.678986l0 0c-6.1482544 0 -11.132385 -3.8857117 -11.132385 -8.678986z" fill-rule="evenodd"/></g></svg>