<svg version="1.1" viewBox="0.0 0.0 960.0 720.0" fill="none" stroke="none" stroke-linecap="square" stroke-miterlimit="10" xmlns:xlink="http://www.w3.org/1999/xlink" xmlns="http://www.w3.org/2000/svg"><clipPath id="p.0"><path d="m0 0l960.0 0l0 720.0l-960.0 0l0 -720.0z" clip-rule="nonzero"/></clipPath><g clip-path="url(#p.0)"><path fill="#000000" fill-opacity="0.0" d="m0 0l960.0 0l0 720.0l-960.0 0z" fill-rule="evenodd"/><path fill="#000000" fill-opacity="0.0" d="m128.28955 71.97951l377.6378 0l0 137.19685l-377.6378 0z" fill-rule="evenodd"/><path fill="#840d35" d="m141.97705 109.579506l0 -18.953125l5.828125 0q2.5 0 4.46875 1.125q1.984375 1.125 3.078125 3.203125q1.109375 2.078125 1.109375 4.71875l0 0.875q0 2.640625 -1.09375 4.703125q-1.078125 2.046875 -3.0625 3.1875q-1.96875 1.125 -4.453125 1.140625l-5.875 0zm3.90625 -15.78125l0 12.640625l1.890625 0q2.296875 0 3.5 -1.484375q1.21875 -1.5 1.234375 -4.296875l0 -1.0q0 -2.890625 -1.203125 -4.375q-1.1875 -1.484375 -3.5 -1.484375l-1.921875 0zm21.339584 15.78125q-0.265625 -0.5 -0.375 -1.265625q-1.375 1.53125 -3.5625 1.53125q-2.0625 0 -3.421875 -1.203125q-1.359375 -1.203125 -1.359375 -3.015625q0 -2.25 1.65625 -3.4375q1.65625 -1.203125 4.796875 -1.21875l1.734375 0l0 -0.796875q0 -0.984375 -0.515625 -1.5625q-0.5 -0.59375 -1.578125 -0.59375q-0.9375 0 -1.484375 0.46875q-0.546875 0.453125 -0.546875 1.234375l-3.75 0q0 -1.21875 0.75 -2.25q0.75 -1.046875 2.125 -1.640625q1.390625 -0.59375 3.109375 -0.59375q2.59375 0 4.125 1.3125q1.53125 1.296875 1.53125 3.671875l0 6.109375q0.015625 2.0 0.5625 3.03125l0 0.21875l-3.796875 0zm-3.109375 -2.609375q0.828125 0 1.53125 -0.375q0.703125 -0.375 1.046875 -1.0l0 -2.421875l-1.40625 0q-2.828125 0 -3.015625 1.953125l-0.015625 0.21875q0 0.703125 0.5 1.171875q0.5 0.453125 1.359375 0.453125zm13.744415 -14.9375l0 3.46875l2.40625 0l0 2.75l-2.40625 0l0 7.03125q0 0.78125 0.296875 1.125q0.296875 0.328125 1.140625 0.328125q0.625 0 1.109375 -0.078125l0 2.84375q-1.109375 0.34375 -2.28125 0.34375q-3.953125 0 -4.03125 -4.0l0 -7.59375l-2.0625 0l0 -2.75l2.0625 0l0 -3.46875l3.765625 0zm12.663147 17.546875q-0.265625 -0.5 -0.375 -1.265625q-1.375 1.53125 -3.5625 1.53125q-2.0625 0 -3.421875 -1.203125q-1.359375 -1.203125 -1.359375 -3.015625q0 -2.25 1.65625 -3.4375q1.65625 -1.203125 4.796875 -1.21875l1.734375 0l0 -0.796875q0 -0.984375 -0.515625 -1.5625q-0.5 -0.59375 -1.578125 -0.59375q-0.9375 0 -1.484375 0.46875q-0.546875 0.453125 -0.546875 1.234375l-3.75 0q0 -1.21875 0.75 -2.25q0.75 -1.046875 2.125 -1.640625q1.390625 -0.59375 3.109375 -0.59375q2.59375 0 4.125 1.3125q1.53125 1.296875 1.53125 3.671875l0 6.109375q0.015625 2.0 0.5625 3.03125l0 0.21875l-3.796875 0zm-3.109375 -2.609375q0.828125 0 1.53125 -0.375q0.703125 -0.375 1.046875 -1.0l0 -2.421875l-1.40625 0q-2.828125 0 -3.015625 1.953125l-0.015625 0.21875q0 0.703125 0.5 1.171875q0.5 0.453125 1.359375 0.453125zm16.116821 2.609375l0 -18.953125l5.828125 0q2.5 0 4.46875 1.125q1.984375 1.125 3.078125 3.203125q1.109375 2.078125 1.109375 4.71875l0 0.875q0 2.640625 -1.09375 4.703125q-1.078125 2.046875 -3.0625 3.1875q-1.96875 1.125 -4.453125 1.140625l-5.875 0zm3.90625 -15.78125l0 12.640625l1.890625 0q2.296875 0 3.5 -1.484375q1.21875 -1.5 1.234375 -4.296875l0 -1.0q0 -2.890625 -1.203125 -4.375q-1.1875 -1.484375 -3.5 -1.484375l-1.921875 0zm17.152084 15.78125l-3.78125 0l0 -14.078125l3.78125 0l0 14.078125zm-4.0 -17.734375q0 -0.84375 0.5625 -1.390625q0.5625 -0.546875 1.546875 -0.546875q0.953125 0 1.53125 0.546875q0.578125 0.546875 0.578125 1.390625q0 0.859375 -0.578125 1.40625q-0.578125 0.546875 -1.53125 0.546875q-0.953125 0 -1.53125 -0.546875q-0.578125 -0.546875 -0.578125 -1.40625zm15.255051 17.734375q-0.265625 -0.5 -0.375 -1.265625q-1.375 1.53125 -3.5625 1.53125q-2.0625 0 -3.421875 -1.203125q-1.359375 -1.203125 -1.359375 -3.015625q0 -2.25 1.65625 -3.4375q1.65625 -1.203125 4.796875 -1.21875l1.734375 0l0 -0.796875q0 -0.984375 -0.515625 -1.5625q-0.5 -0.59375 -1.578125 -0.59375q-0.9375 0 -1.484375 0.46875q-0.546875 0.453125 -0.546875 1.234375l-3.75 0q0 -1.21875 0.75 -2.25q0.75 -1.046875 2.125 -1.640625q1.390625 -0.59375 3.109375 -0.59375q2.59375 0 4.125 1.3125q1.53125 1.296875 1.53125 3.671875l0 6.109375q0.015625 2.0 0.5625 3.03125l0 0.21875l-3.796875 0zm-3.109375 -2.609375q0.828125 0 1.53125 -0.375q0.703125 -0.375 1.046875 -1.0l0 -2.421875l-1.40625 0q-2.828125 0 -3.015625 1.953125l-0.015625 0.21875q0 0.703125 0.5 1.171875q0.5 0.453125 1.359375 0.453125zm8.681915 -4.53125q0 -3.25 1.546875 -5.21875q1.546875 -1.984375 4.15625 -1.984375q2.328125 0 3.609375 1.59375l0.15625 -1.328125l3.40625 0l0 13.609375q0 1.84375 -0.84375 3.203125q-0.828125 1.375 -2.359375 2.09375q-1.515625 0.71875 -3.5625 0.71875q-1.546875 0 -3.015625 -0.625q-1.46875 -0.609375 -2.234375 -1.59375l1.671875 -2.28125q1.40625 1.5625 3.40625 1.5625q1.5 0 2.328125 -0.796875q0.84375 -0.796875 0.84375 -2.265625l0 -0.75q-1.3125 1.46875 -3.421875 1.46875q-2.546875 0 -4.125 -1.984375q-1.5625 -1.984375 -1.5625 -5.265625l0 -0.15625zm3.765625 0.265625q0 1.921875 0.765625 3.015625q0.78125 1.078125 2.109375 1.078125q1.71875 0 2.46875 -1.296875l0 -5.921875q-0.765625 -1.28125 -2.4375 -1.28125q-1.359375 0 -2.140625 1.109375q-0.765625 1.09375 -0.765625 3.296875zm15.465408 -7.203125l0.125 1.625q1.5 -1.890625 4.046875 -1.890625q2.234375 0 3.328125 1.3125q1.09375 1.3125 1.109375 3.9375l0 9.09375l-3.75 0l0 -9.0q0 -1.203125 -0.53125 -1.734375q-0.515625 -0.546875 -1.71875 -0.546875q-1.59375 0 -2.390625 1.34375l0 9.9375l-3.765625 0l0 -14.078125l3.546875 0zm10.882202 6.90625q0 -2.09375 0.796875 -3.734375q0.8125 -1.640625 2.328125 -2.53125q1.515625 -0.90625 3.53125 -0.90625q2.84375 0 4.640625 1.75q1.8125 1.734375 2.015625 4.734375l0.03125 0.96875q0 3.234375 -1.8125 5.203125q-1.8125 1.953125 -4.859375 1.953125q-3.046875 0 -4.859375 -1.953125q-1.8125 -1.953125 -1.8125 -5.3125l0 -0.171875zm3.765625 0.28125q0 2.0 0.75 3.0625q0.75 1.0625 2.15625 1.0625q1.375 0 2.140625 -1.046875q0.765625 -1.0625 0.765625 -3.359375q0 -1.96875 -0.765625 -3.046875q-0.765625 -1.078125 -2.15625 -1.078125q-1.390625 0 -2.140625 1.078125q-0.75 1.0625 -0.75 3.328125zm19.52536 3.0q0 -0.6875 -0.6875 -1.078125q-0.6875 -0.40625 -2.1875 -0.71875q-5.03125 -1.046875 -5.03125 -4.265625q0 -1.875 1.546875 -3.125q1.5625 -1.265625 4.078125 -1.265625q2.671875 0 4.28125 1.265625q1.609375 1.265625 1.609375 3.28125l-3.765625 0q0 -0.8125 -0.515625 -1.328125q-0.515625 -0.53125 -1.625 -0.53125q-0.953125 0 -1.46875 0.4375q-0.515625 0.421875 -0.515625 1.078125q0 0.625 0.578125 1.015625q0.59375 0.375 2.0 0.65625q1.40625 0.28125 2.375 0.640625q2.984375 1.09375 2.984375 3.78125q0 1.921875 -1.65625 3.125q-1.65625 1.1875 -4.265625 1.1875q-1.78125 0 -3.15625 -0.625q-1.359375 -0.640625 -2.140625 -1.734375q-0.78125 -1.109375 -0.78125 -2.390625l3.5625 0q0.046875 1.015625 0.734375 1.546875q0.703125 0.53125 1.859375 0.53125q1.078125 0 1.625 -0.40625q0.5625 -0.421875 0.5625 -1.078125zm10.049316 3.890625l-3.78125 0l0 -14.078125l3.78125 0l0 14.078125zm-4.0 -17.734375q0 -0.84375 0.5625 -1.390625q0.5625 -0.546875 1.546875 -0.546875q0.953125 0 1.53125 0.546875q0.578125 0.546875 0.578125 1.390625q0 0.859375 -0.578125 1.40625q-0.578125 0.546875 -1.53125 0.546875q-0.953125 0 -1.53125 -0.546875q-0.578125 -0.546875 -0.578125 -1.40625zm14.723816 13.84375q0 -0.6875 -0.6875 -1.078125q-0.6875 -0.40625 -2.1875 -0.71875q-5.03125 -1.046875 -5.03125 -4.265625q0 -1.875 1.546875 -3.125q1.5625 -1.265625 4.078125 -1.265625q2.671875 0 4.28125 1.265625q1.609375 1.265625 1.609375 3.28125l-3.765625 0q0 -0.8125 -0.515625 -1.328125q-0.515625 -0.53125 -1.625 -0.53125q-0.953125 0 -1.46875 0.4375q-0.515625 0.421875 -0.515625 1.078125q0 0.625 0.578125 1.015625q0.59375 0.375 2.0 0.65625q1.40625 0.28125 2.375 0.640625q2.984375 1.09375 2.984375 3.78125q0 1.921875 -1.65625 3.125q-1.65625 1.1875 -4.265625 1.1875q-1.78125 0 -3.15625 -0.625q-1.359375 -0.640625 -2.140625 -1.734375q-0.78125 -1.109375 -0.78125 -2.390625l3.5625 0q0.046875 1.015625 0.734375 1.546875q0.703125 0.53125 1.859375 0.53125q1.078125 0 1.625 -0.40625q0.5625 -0.421875 0.5625 -1.078125z" fill-rule="nonzero"/><path fill="#840d35" d="m82.38 84.55357l18.479767 0l0 635.438l-18.479767 0z" fill-rule="evenodd"/><path fill="#000000" fill-opacity="0.0" d="m128.28822 84.54836l-73.33766 0" fill-rule="evenodd"/><path stroke="#840d35" stroke-width="1.0" stroke-linejoin="round" stroke-linecap="butt" d="m128.28822 84.54836l-73.33766 0" fill-rule="evenodd"/><path fill="#000000" fill-opacity="0.0" d="m313.2444 360.00006l47.66739 0l0 106.677185l47.671204 0" fill-rule="evenodd"/><path stroke="#c2c2c2" stroke-width="1.0" stroke-linejoin="round" stroke-linecap="butt" d="m313.2444 360.00006l47.66739 0l0 106.677185l47.671204 0" fill-rule="evenodd"/><path fill="#000000" fill-opacity="0.0" d="m313.2444 360.00006l47.66739 0l0 -106.677155l47.671204 0" fill-rule="evenodd"/><path stroke="#c2c2c2" stroke-width="1.0" stroke-linejoin="round" stroke-linecap="butt" d="m313.2444 360.00006l47.66739 0l0 -106.677155l47.671204 0" fill-rule="evenodd"/><path fill="#000000" fill-opacity="0.0" d="m592.7286 253.3108l39.787292 0l0 -52.125977l39.803223 0" fill-rule="evenodd"/><path stroke="#c2c2c2" stroke-width="1.0" stroke-linejoin="round" stroke-linecap="butt" d="m592.7286 253.3108l39.787292 0l0 -52.125977l39.803223 0" fill-rule="evenodd"/><path fill="#000000" fill-opacity="0.0" d="m592.7286 253.3108l39.787292 0l0 50.425217l39.803223 0" fill-rule="evenodd"/><path stroke="#c2c2c2" stroke-width="1.0" stroke-linejoin="round" stroke-linecap="butt" d="m592.7286 253.3108l39.787292 0l0 50.425217l39.803223 0" fill-rule="evenodd"/><path fill="#000000" fill-opacity="0.0" d="m592.7286 466.68933l39.787292 0l0 -52.125977l39.803223 0" fill-rule="evenodd"/><path stroke="#c2c2c2" stroke-width="1.0" stroke-linejoin="round" stroke-linecap="butt" d="m592.7286 466.68933l39.787292 0l0 -52.125977l39.803223 0" fill-rule="evenodd"/><path fill="#000000" fill-opacity="0.0" d="m592.7286 466.68933l39.787292 0l0 52.125977l39.803223 0" fill-rule="evenodd"/><path stroke="#c2c2c2" stroke-width="1.0" stroke-linejoin="round" stroke-linecap="butt" d="m592.7286 466.68933l39.787292 0l0 52.125977l39.803223 0" fill-rule="evenodd"/><path fill="#000000" fill-opacity="0.0" d="m695.9402 189.06941l0 0c0 -3.3491058 2.7149658 -6.064087 6.064087 -6.064087l148.39154 0c1.6082764 0 3.1507568 0.6388855 4.287964 1.776123c1.1372681 1.1372375 1.776123 2.679657 1.776123 4.287964l0 24.2556c0 3.3491058 -2.7149658 6.064087 -6.064087 6.064087l-148.39154 0c-3.349121 0 -6.064087 -2.714981 -6.064087 -6.064087z" fill-rule="evenodd"/><path fill="#980000" d="m720.48193 202.73972l0 5.9375l-2.0 0l0 -15.15625l5.59375 0q2.484375 0 3.890625 1.265625q1.40625 1.265625 1.40625 3.359375q0 2.203125 -1.375 3.40625q-1.375 1.1875 -3.953125 1.1875l-3.5625 0zm0 -1.640625l3.59375 0q1.59375 0 2.453125 -0.75q0.859375 -0.75 0.859375 -2.1875q0 -1.34375 -0.859375 -2.15625q-0.859375 -0.8125 -2.34375 -0.84375l-3.703125 0l0 5.9375zm16.595642 -1.96875q-0.4375 -0.0625 -0.953125 -0.0625q-1.890625 0 -2.5625 1.609375l0 8.0l-1.9375 0l0 -11.265625l1.875 0l0.03125 1.296875q0.953125 -1.5 2.6875 -1.5q0.5625 0 0.859375 0.140625l0 1.78125zm6.253479 9.75q-2.296875 0 -3.734375 -1.5q-1.4375 -1.5 -1.4375 -4.03125l0 -0.34375q0 -1.6875 0.640625 -3.0q0.640625 -1.3125 1.78125 -2.046875q1.15625 -0.75 2.5 -0.75q2.203125 0 3.421875 1.453125q1.21875 1.4375 1.21875 4.125l0 0.8125l-7.640625 0q0.046875 1.65625 0.96875 2.6875q0.9375 1.03125 2.375 1.03125q1.03125 0 1.734375 -0.421875q0.703125 -0.421875 1.234375 -1.109375l1.1875 0.921875q-1.421875 2.171875 -4.25 2.171875zm-0.25 -10.09375q-1.15625 0 -1.953125 0.84375q-0.796875 0.84375 -0.984375 2.375l5.65625 0l0 -0.140625q-0.09375 -1.46875 -0.796875 -2.265625q-0.703125 -0.8125 -1.921875 -0.8125zm6.3930664 4.15625q0 -2.59375 1.234375 -4.15625q1.234375 -1.578125 3.21875 -1.578125q1.984375 0 3.140625 1.34375l0 -5.875l1.921875 0l0 16.0l-1.765625 0l-0.09375 -1.203125q-1.15625 1.40625 -3.21875 1.40625q-1.96875 0 -3.203125 -1.59375q-1.234375 -1.609375 -1.234375 -4.1875l0 -0.15625zm1.9375 0.21875q0 1.921875 0.78125 3.015625q0.796875 1.078125 2.1875 1.078125q1.84375 0 2.6875 -1.65625l0 -5.171875q-0.875 -1.59375 -2.65625 -1.59375q-1.421875 0 -2.21875 1.09375q-0.78125 1.09375 -0.78125 3.234375zm12.65332 5.515625l-1.921875 0l0 -11.265625l1.921875 0l0 11.265625zm-2.078125 -14.25q0 -0.46875 0.28125 -0.796875q0.296875 -0.328125 0.859375 -0.328125q0.5625 0 0.84375 0.328125q0.296875 0.328125 0.296875 0.796875q0 0.46875 -0.296875 0.78125q-0.28125 0.3125 -0.84375 0.3125q-0.5625 0 -0.859375 -0.3125q-0.28125 -0.3125 -0.28125 -0.78125zm9.691467 12.890625q1.03125 0 1.796875 -0.625q0.765625 -0.625 0.859375 -1.5625l1.8125 0q-0.046875 0.96875 -0.671875 1.84375q-0.609375 0.875 -1.640625 1.390625q-1.015625 0.515625 -2.15625 0.515625q-2.3125 0 -3.671875 -1.53125q-1.359375 -1.53125 -1.359375 -4.203125l0 -0.328125q0 -1.640625 0.609375 -2.921875q0.609375 -1.28125 1.734375 -1.984375q1.125 -0.703125 2.671875 -0.703125q1.890625 0 3.140625 1.140625q1.265625 1.125 1.34375 2.9375l-1.8125 0q-0.09375 -1.09375 -0.84375 -1.796875q-0.734375 -0.703125 -1.828125 -0.703125q-1.46875 0 -2.28125 1.0625q-0.796875 1.046875 -0.796875 3.046875l0 0.359375q0 1.953125 0.796875 3.015625q0.796875 1.046875 2.296875 1.046875zm9.25769 -12.640625l0 2.734375l2.09375 0l0 1.484375l-2.09375 0l0 6.984375q0 0.6875 0.28125 1.03125q0.28125 0.328125 0.953125 0.328125q0.328125 0 0.921875 -0.125l0 1.5625q-0.765625 0.203125 -1.484375 0.203125q-1.296875 0 -1.953125 -0.78125q-0.65625 -0.78125 -0.65625 -2.21875l0 -6.984375l-2.046875 0l0 -1.484375l2.046875 0l0 -2.734375l1.9375 0zm6.435791 14.0l-1.921875 0l0 -11.265625l1.921875 0l0 11.265625zm-2.078125 -14.25q0 -0.46875 0.28125 -0.796875q0.296875 -0.328125 0.859375 -0.328125q0.5625 0 0.84375 0.328125q0.296875 0.328125 0.296875 0.796875q0 0.46875 -0.296875 0.78125q-0.28125 0.3125 -0.84375 0.3125q-0.5625 0 -0.859375 -0.3125q-0.28125 -0.3125 -0.28125 -0.78125zm4.6602173 8.515625q0 -1.65625 0.640625 -2.984375q0.65625 -1.328125 1.8125 -2.03125q1.171875 -0.71875 2.65625 -0.71875q2.296875 0 3.71875 1.59375q1.421875 1.578125 1.421875 4.234375l0 0.125q0 1.65625 -0.625 2.96875q-0.625 1.296875 -1.796875 2.03125q-1.171875 0.71875 -2.703125 0.71875q-2.28125 0 -3.703125 -1.59375q-1.421875 -1.59375 -1.421875 -4.21875l0 -0.125zm1.9375 0.21875q0 1.875 0.859375 3.015625q0.875 1.140625 2.328125 1.140625q1.46875 0 2.328125 -1.15625q0.875 -1.15625 0.875 -3.21875q0 -1.859375 -0.890625 -3.0q-0.875 -1.15625 -2.328125 -1.15625q-1.421875 0 -2.296875 1.140625q-0.875 1.125 -0.875 3.234375zm12.554321 -5.75l0.0625 1.40625q1.296875 -1.609375 3.375 -1.609375q3.578125 0 3.609375 4.015625l0 7.453125l-1.9375 0l0 -7.453125q0 -1.21875 -0.546875 -1.796875q-0.546875 -0.59375 -1.703125 -0.59375q-0.9375 0 -1.65625 0.5q-0.703125 0.5 -1.09375 1.3125l0 8.03125l-1.9375 0l0 -11.265625l1.828125 0z" fill-rule="nonzero"/><path fill="#505050" d="m672.31635 201.1972l0 0c0 -5.4767914 5.288391 -9.916626 11.811951 -9.916626l0 0c6.5234985 0 11.81189 4.4398346 11.81189 9.916626l0 0c0 5.4768066 -5.288391 9.916641 -11.81189 9.916641l0 0c-6.5235596 0 -11.811951 -4.4398346 -11.811951 -9.916641z" fill-rule="evenodd"/><path fill="#000000" fill-opacity="0.0" d="m432.20883 241.18301l0 0c0 -3.3491058 2.7149963 -6.064087 6.064087 -6.064087l148.39157 0c1.6082764 0 3.1506958 0.6388855 4.287964 1.776123c1.137207 1.1372375 1.776123 2.679657 1.776123 4.287964l0 24.255615c0 3.3490906 -2.7149658 6.0640564 -6.064087 6.0640564l-148.39157 0c-3.3490906 0 -6.064087 -2.7149658 -6.064087 -6.0640564z" fill-rule="evenodd"/><path fill="#980000" d="m465.93808 258.80643q-0.765625 1.09375 -2.15625 1.640625q-1.375 0.546875 -3.203125 0.546875q-1.859375 0 -3.296875 -0.859375q-1.4375 -0.875 -2.21875 -2.46875q-0.78125 -1.609375 -0.8125 -3.7343597l0 -1.3125q0 -3.421875 1.59375 -5.3125q1.609375 -1.890625 4.5 -1.890625q2.375 0 3.8125 1.21875q1.453125 1.21875 1.78125 3.4375l-2.0 0q-0.5625 -3.0 -3.578125 -3.0q-2.015625 0 -3.046875 1.40625q-1.03125 1.40625 -1.046875 4.078125l0 1.25q0 2.5468597 1.15625 4.0624847q1.171875 1.5 3.171875 1.5q1.125 0 1.96875 -0.25q0.84375 -0.25 1.390625 -0.84375l0 -3.4062347l-3.515625 0l0 -1.625l5.5 0l0 5.5624847zm2.52771 -3.7499847q0 -1.65625 0.640625 -2.984375q0.65625 -1.328125 1.8125 -2.03125q1.171875 -0.71875 2.65625 -0.71875q2.296875 0 3.71875 1.59375q1.421875 1.578125 1.421875 4.234375l0 0.125q0 1.6562347 -0.625 2.9687347q-0.625 1.296875 -1.796875 2.03125q-1.171875 0.71875 -2.703125 0.71875q-2.28125 0 -3.703125 -1.59375q-1.421875 -1.59375 -1.421875 -4.2187347l0 -0.125zm1.9375 0.21875q0 1.8749847 0.859375 3.0156097q0.875 1.140625 2.328125 1.140625q1.46875 0 2.328125 -1.15625q0.875 -1.15625 0.875 -3.2187347q0 -1.859375 -0.890625 -3.0q-0.875 -1.15625 -2.328125 -1.15625q-1.421875 0 -2.296875 1.140625q-0.875 1.125 -0.875 3.234375zm17.694946 5.5156097q-0.171875 -0.328125 -0.28125 -1.1875q-1.34375 1.390625 -3.203125 1.390625q-1.671875 0 -2.734375 -0.9375q-1.0625 -0.9375 -1.0625 -2.390625q0 -1.7656097 1.328125 -2.7343597q1.34375 -0.96875 3.765625 -0.96875l1.875 0l0 -0.890625q0 -1.015625 -0.609375 -1.609375q-0.59375 -0.59375 -1.765625 -0.59375q-1.03125 0 -1.734375 0.515625q-0.703125 0.515625 -0.703125 1.265625l-1.9375 0q0 -0.84375 0.59375 -1.625q0.609375 -0.796875 1.625 -1.25q1.03125 -0.453125 2.265625 -0.453125q1.953125 0 3.046875 0.96875q1.109375 0.96875 1.15625 2.671875l0 5.1874847q0 1.5625 0.390625 2.46875l0 0.171875l-2.015625 0zm-3.203125 -1.46875q0.90625 0 1.71875 -0.46875q0.8125 -0.46875 1.171875 -1.21875l0 -2.3124847l-1.5 0q-3.546875 0 -3.546875 2.0781097q0 0.90625 0.59375 1.421875q0.609375 0.5 1.5625 0.5zm9.929474 1.46875l-1.921875 0l0 -15.999985l1.921875 0l0 15.999985zm9.644562 -2.984375q0 -0.78125 -0.59375 -1.21875q-0.578125 -0.4375 -2.046875 -0.74998474q-1.453125 -0.3125 -2.3125 -0.75q-0.859375 -0.4375 -1.28125 -1.03125q-0.40625 -0.609375 -0.40625 -1.4375q0 -1.390625 1.171875 -2.34375q1.171875 -0.953125 3.0 -0.953125q1.90625 0 3.09375 0.984375q1.203125 0.984375 1.203125 2.53125l-1.9375 0q0 -0.796875 -0.671875 -1.359375q-0.671875 -0.578125 -1.6875 -0.578125q-1.0625 0 -1.65625 0.453125q-0.59375 0.453125 -0.59375 1.203125q0 0.6875 0.546875 1.046875q0.5625 0.359375 2.0 0.6875q1.453125 0.3125 2.34375 0.765625q0.890625 0.4375 1.328125 1.0781097q0.4375 0.625 0.4375 1.53125q0 1.515625 -1.21875 2.421875q-1.203125 0.90625 -3.125 0.90625q-1.359375 0 -2.40625 -0.46875q-1.03125 -0.484375 -1.625 -1.34375q-0.59375 -0.859375 -0.59375 -1.859375l1.9375 0q0.046875 0.96875 0.765625 1.546875q0.734375 0.5625 1.921875 0.5625q1.09375 0 1.75 -0.4375q0.65625 -0.453125 0.65625 -1.1875z" fill-rule="nonzero"/><path fill="#414141" d="m408.58502 253.3108l0 0c0 -5.4767914 5.288391 -9.916626 11.81192 -9.916626l0 0c6.523529 0 11.81189 4.4398346 11.81189 9.916626l0 0c0 5.476822 -5.2883606 9.916641 -11.81189 9.916641l0 0c-6.523529 0 -11.81192 -4.4398193 -11.81192 -9.916641z" fill-rule="evenodd"/><path fill="#000000" fill-opacity="0.0" d="m128.28964 347.87225l0 0c0 -3.3490906 2.714981 -6.0640564 6.064087 -6.0640564l148.39154 0c1.6083069 0 3.1507263 0.6388855 4.287964 1.776123c1.1372375 1.1372375 1.776123 2.679657 1.776123 4.2879333l0 24.255615c0 3.349121 -2.7149658 6.064087 -6.064087 6.064087l-148.39154 0c-3.3491058 0 -6.064087 -2.7149658 -6.064087 -6.064087z" fill-rule="evenodd"/><path fill="#980000" d="m225.64297 367.48007l0 -15.15625l4.28125 0q1.96875 0 3.484375 0.875q1.53125 0.875 2.359375 2.484375q0.828125 1.609375 0.828125 3.703125l0 0.96875q0 2.140625 -0.828125 3.765625q-0.828125 1.609375 -2.359375 2.484375q-1.53125 0.859375 -3.578125 0.875l-4.1875 0zm2.0 -13.515625l0 11.875l2.09375 0q2.3125 0 3.59375 -1.4375q1.296875 -1.4375 1.296875 -4.09375l0 -0.875q0 -2.59375 -1.21875 -4.015625q-1.203125 -1.4375 -3.4375 -1.453125l-2.328125 0zm18.642426 13.515625q-0.171875 -0.328125 -0.28125 -1.1875q-1.34375 1.390625 -3.203125 1.390625q-1.671875 0 -2.734375 -0.9375q-1.0625 -0.9375 -1.0625 -2.390625q0 -1.765625 1.328125 -2.734375q1.34375 -0.96875 3.765625 -0.96875l1.875 0l0 -0.890625q0 -1.015625 -0.609375 -1.609375q-0.59375 -0.59375 -1.765625 -0.59375q-1.03125 0 -1.734375 0.515625q-0.703125 0.515625 -0.703125 1.265625l-1.9375 0q0 -0.84375 0.59375 -1.625q0.609375 -0.796875 1.625 -1.25q1.03125 -0.453125 2.265625 -0.453125q1.953125 0 3.046875 0.96875q1.109375 0.96875 1.15625 2.671875l0 5.1875q0 1.5625 0.390625 2.46875l0 0.171875l-2.015625 0zm-3.203125 -1.46875q0.90625 0 1.71875 -0.46875q0.8125 -0.46875 1.171875 -1.21875l0 -2.3125l-1.5 0q-3.546875 0 -3.546875 2.078125q0 0.90625 0.59375 1.421875q0.609375 0.5 1.5625 0.5zm10.460709 -12.53125l0 2.734375l2.09375 0l0 1.484375l-2.09375 0l0 6.984375q0 0.6875 0.28125 1.03125q0.28125 0.328125 0.953125 0.328125q0.328125 0 0.921875 -0.125l0 1.5625q-0.765625 0.203125 -1.484375 0.203125q-1.296875 0 -1.953125 -0.78125q-0.65625 -0.78125 -0.65625 -2.21875l0 -6.984375l-2.046875 0l0 -1.484375l2.046875 0l0 -2.734375l1.9375 0zm11.310806 14.0q-0.171875 -0.328125 -0.28125 -1.1875q-1.34375 1.390625 -3.203125 1.390625q-1.671875 0 -2.734375 -0.9375q-1.0625 -0.9375 -1.0625 -2.390625q0 -1.765625 1.328125 -2.734375q1.34375 -0.96875 3.765625 -0.96875l1.875 0l0 -0.890625q0 -1.015625 -0.609375 -1.609375q-0.59375 -0.59375 -1.765625 -0.59375q-1.03125 0 -1.734375 0.515625q-0.703125 0.515625 -0.703125 1.265625l-1.9375 0q0 -0.84375 0.59375 -1.625q0.609375 -0.796875 1.625 -1.25q1.03125 -0.453125 2.265625 -0.453125q1.953125 0 3.046875 0.96875q1.109375 0.96875 1.15625 2.671875l0 5.1875q0 1.5625 0.390625 2.46875l0 0.171875l-2.015625 0zm-3.203125 -1.46875q0.90625 0 1.71875 -0.46875q0.8125 -0.46875 1.171875 -1.21875l0 -2.3125l-1.5 0q-3.546875 0 -3.546875 2.078125q0 0.90625 0.59375 1.421875q0.609375 0.5 1.5625 0.5z" fill-rule="nonzero"/><path fill="#2f2f2f" d="m289.62057 360.00006l0 0c0 -5.4768066 5.288391 -9.916626 11.81192 -9.916626l0 0c6.523529 0 11.81189 4.4398193 11.81189 9.916626l0 0c0 5.4768066 -5.2883606 9.916626 -11.81189 9.916626l0 0c-6.523529 0 -11.81192 -4.4398193 -11.81192 -9.916626z" fill-rule="evenodd"/><path fill="#000000" fill-opacity="0.0" d="m432.20883 454.56152l0 0c0 -3.3490906 2.7149963 -6.064087 6.064087 -6.064087l148.39157 0c1.6082764 0 3.1506958 0.6388855 4.287964 1.776123c1.137207 1.1372375 1.776123 2.6796875 1.776123 4.287964l0 24.255615c0 3.3490906 -2.7149658 6.064087 -6.064087 6.064087l-148.39157 0c-3.3490906 0 -6.064087 -2.7149963 -6.064087 -6.064087z" fill-rule="evenodd"/><path fill="#980000" d="m466.40683 467.0756q0 2.234375 -0.75 3.890625q-0.75 1.65625 -2.125 2.53125q-1.375 0.875 -3.203125 0.875q-1.796875 0 -3.1875 -0.875q-1.375 -0.875 -2.140625 -2.5q-0.765625 -1.640625 -0.78125 -3.78125l0 -1.09375q0 -2.1875 0.75 -3.859375q0.765625 -1.6875 2.15625 -2.578125q1.390625 -0.890625 3.1875 -0.890625q1.8125 0 3.203125 0.890625q1.390625 0.875 2.140625 2.546875q0.75 1.671875 0.75 3.890625l0 0.953125zm-1.984375 -0.984375q0 -2.6875 -1.09375 -4.125q-1.078125 -1.453125 -3.015625 -1.453125q-1.90625 0 -3.0 1.453125q-1.078125 1.4375 -1.109375 4.0l0 1.109375q0 2.609375 1.09375 4.109375q1.109375 1.5 3.03125 1.5q1.9375 0 3.0 -1.40625q1.0625 -1.421875 1.09375 -4.0625l0 -1.125zm14.225586 2.5625q0 2.59375 -1.1875 4.15625q-1.1875 1.5625 -3.1875 1.5625q-2.140625 0 -3.296875 -1.5l-0.09375 1.296875l-1.78125 0l0 -16.0l1.9375 0l0 5.96875q1.15625 -1.4375 3.203125 -1.4375q2.0625 0 3.234375 1.546875q1.171875 1.546875 1.171875 4.25l0 0.15625zm-1.921875 -0.21875q0 -1.96875 -0.765625 -3.03125q-0.765625 -1.078125 -2.1875 -1.078125q-1.90625 0 -2.734375 1.765625l0 4.875q0.875 1.78125 2.75 1.78125q1.390625 0 2.15625 -1.078125q0.78125 -1.078125 0.78125 -3.234375zm10.903351 2.75q0 -0.78125 -0.59375 -1.21875q-0.578125 -0.4375 -2.046875 -0.75q-1.453125 -0.3125 -2.3125 -0.75q-0.859375 -0.4375 -1.28125 -1.03125q-0.40625 -0.609375 -0.40625 -1.4375q0 -1.390625 1.171875 -2.34375q1.171875 -0.953125 3.0 -0.953125q1.90625 0 3.09375 0.984375q1.203125 0.984375 1.203125 2.53125l-1.9375 0q0 -0.796875 -0.671875 -1.359375q-0.671875 -0.578125 -1.6875 -0.578125q-1.0625 0 -1.65625 0.453125q-0.59375 0.453125 -0.59375 1.203125q0 0.6875 0.546875 1.046875q0.5625 0.359375 2.0 0.6875q1.453125 0.3125 2.34375 0.765625q0.890625 0.4375 1.328125 1.078125q0.4375 0.625 0.4375 1.53125q0 1.515625 -1.21875 2.421875q-1.203125 0.90625 -3.125 0.90625q-1.359375 0 -2.40625 -0.46875q-1.03125 -0.484375 -1.625 -1.34375q-0.59375 -0.859375 -0.59375 -1.859375l1.9375 0q0.046875 0.96875 0.765625 1.546875q0.734375 0.5625 1.921875 0.5625q1.09375 0 1.75 -0.4375q0.65625 -0.453125 0.65625 -1.1875zm7.0598145 -11.015625l0 2.734375l2.09375 0l0 1.484375l-2.09375 0l0 6.984375q0 0.6875 0.28125 1.03125q0.28125 0.328125 0.953125 0.328125q0.328125 0 0.921875 -0.125l0 1.5625q-0.765625 0.203125 -1.484375 0.203125q-1.296875 0 -1.953125 -0.78125q-0.65625 -0.78125 -0.65625 -2.21875l0 -6.984375l-2.046875 0l0 -1.484375l2.046875 0l0 -2.734375l1.9375 0zm11.310791 14.0q-0.171875 -0.328125 -0.28125 -1.1875q-1.34375 1.390625 -3.203125 1.390625q-1.671875 0 -2.734375 -0.9375q-1.0625 -0.9375 -1.0625 -2.390625q0 -1.765625 1.328125 -2.734375q1.34375 -0.96875 3.765625 -0.96875l1.875 0l0 -0.890625q0 -1.015625 -0.609375 -1.609375q-0.59375 -0.59375 -1.765625 -0.59375q-1.03125 0 -1.734375 0.515625q-0.703125 0.515625 -0.703125 1.265625l-1.9375 0q0 -0.84375 0.59375 -1.625q0.609375 -0.796875 1.625 -1.25q1.03125 -0.453125 2.265625 -0.453125q1.953125 0 3.046875 0.96875q1.109375 0.96875 1.15625 2.671875l0 5.1875q0 1.5625 0.390625 2.46875l0 0.171875l-2.015625 0zm-3.203125 -1.46875q0.90625 0 1.71875 -0.46875q0.8125 -0.46875 1.171875 -1.21875l0 -2.3125l-1.5 0q-3.546875 0 -3.546875 2.078125q0 0.90625 0.59375 1.421875q0.609375 0.5 1.5625 0.5zm12.366943 0.109375q1.03125 0 1.796875 -0.625q0.765625 -0.625 0.859375 -1.5625l1.8125 0q-0.046875 0.96875 -0.671875 1.84375q-0.609375 0.875 -1.640625 1.390625q-1.015625 0.515625 -2.15625 0.515625q-2.3125 0 -3.6718445 -1.53125q-1.359375 -1.53125 -1.359375 -4.203125l0 -0.328125q0 -1.640625 0.609375 -2.921875q0.609375 -1.28125 1.7343445 -1.984375q1.125 -0.703125 2.671875 -0.703125q1.890625 0 3.140625 1.140625q1.265625 1.125 1.34375 2.9375l-1.8125 0q-0.09375 -1.09375 -0.84375 -1.796875q-0.734375 -0.703125 -1.828125 -0.703125q-1.46875 0 -2.28125 1.0625q-0.796875 1.046875 -0.796875 3.046875l0 0.359375q0 1.953125 0.796875 3.015625q0.796875 1.046875 2.296875 1.046875zm8.72644 1.359375l-1.921875 0l0 -16.0l1.921875 0l0 16.0zm7.7695923 0.203125q-2.296875 0 -3.734375 -1.5q-1.4375 -1.5 -1.4375 -4.03125l0 -0.34375q0 -1.6875 0.640625 -3.0q0.640625 -1.3125 1.78125 -2.046875q1.15625 -0.75 2.5 -0.75q2.203125 0 3.421875 1.453125q1.21875 1.4375 1.21875 4.125l0 0.8125l-7.640625 0q0.046875 1.65625 0.96875 2.6875q0.9375 1.03125 2.375 1.03125q1.03125 0 1.734375 -0.421875q0.703125 -0.421875 1.234375 -1.109375l1.1875 0.921875q-1.421875 2.171875 -4.25 2.171875zm-0.25 -10.09375q-1.15625 0 -1.953125 0.84375q-0.796875 0.84375 -0.984375 2.375l5.65625 0l0 -0.140625q-0.09375 -1.46875 -0.796875 -2.265625q-0.703125 -0.8125 -1.921875 -0.8125zm13.424316 6.90625q0 -0.78125 -0.59375 -1.21875q-0.578125 -0.4375 -2.046875 -0.75q-1.453125 -0.3125 -2.3125 -0.75q-0.859375 -0.4375 -1.28125 -1.03125q-0.40625 -0.609375 -0.40625 -1.4375q0 -1.390625 1.171875 -2.34375q1.171875 -0.953125 3.0 -0.953125q1.90625 0 3.09375 0.984375q1.203125 0.984375 1.203125 2.53125l-1.9375 0q0 -0.796875 -0.671875 -1.359375q-0.671875 -0.578125 -1.6875 -0.578125q-1.0625 0 -1.65625 0.453125q-0.59375 0.453125 -0.59375 1.203125q0 0.6875 0.546875 1.046875q0.5625 0.359375 2.0 0.6875q1.453125 0.3125 2.34375 0.765625q0.890625 0.4375 1.328125 1.078125q0.4375 0.625 0.4375 1.53125q0 1.515625 -1.21875 2.421875q-1.203125 0.90625 -3.125 0.90625q-1.359375 0 -2.40625 -0.46875q-1.03125 -0.484375 -1.625 -1.34375q-0.59375 -0.859375 -0.59375 -1.859375l1.9375 0q0.046875 0.96875 0.765625 1.546875q0.734375 0.5625 1.921875 0.5625q1.09375 0 1.75 -0.4375q0.65625 -0.453125 0.65625 -1.1875z" fill-rule="nonzero"/><path fill="#414141" d="m408.58502 466.68933l0 0c0 -5.4768066 5.288391 -9.916626 11.81192 -9.916626l0 0c6.523529 0 11.81189 4.4398193 11.81189 9.916626l0 0c0 5.4768066 -5.2883606 9.916626 -11.81189 9.916626l0 0c-6.523529 0 -11.81192 -4.4398193 -11.81192 -9.916626z" fill-rule="evenodd"/><path fill="#000000" fill-opacity="0.0" d="m695.9402 293.2966l0 0c0 -3.3490906 2.7149658 -6.064087 6.064087 -6.064087l148.39154 0c1.6082764 0 3.1507568 0.638916 4.287964 1.7761536c1.1372681 1.1372375 1.776123 2.679657 1.776123 4.2879333l0 24.255615c0 3.3490906 -2.7149658 6.064087 -6.064087 6.064087l-148.39154 0c-3.349121 0 -6.064087 -2.7149963 -6.064087 -6.064087z" fill-rule="evenodd"/><path fill="#980000" d="m718.48193 312.90442l0 -15.15625l4.28125 0q1.96875 0 3.484375 0.875q1.53125 0.875 2.359375 2.484375q0.828125 1.609375 0.828125 3.703125l0 0.96875q0 2.140625 -0.828125 3.765625q-0.828125 1.609375 -2.359375 2.484375q-1.53125 0.859375 -3.578125 0.875l-4.1875 0zm2.0 -13.515625l0 11.875l2.09375 0q2.3125 0 3.59375 -1.4375q1.296875 -1.4375 1.296875 -4.09375l0 -0.875q0 -2.59375 -1.21875 -4.015625q-1.203125 -1.4375 -3.4375 -1.453125l-2.328125 0zm16.361145 13.71875q-2.296875 0 -3.734375 -1.5q-1.4375 -1.5 -1.4375 -4.03125l0 -0.34375q0 -1.6875 0.640625 -3.0q0.640625 -1.3125 1.78125 -2.046875q1.15625 -0.75 2.5 -0.75q2.203125 0 3.421875 1.453125q1.21875 1.4375 1.21875 4.125l0 0.8125l-7.640625 0q0.046875 1.65625 0.96875 2.6875q0.9375 1.03125 2.375 1.03125q1.03125 0 1.734375 -0.421875q0.703125 -0.421875 1.234375 -1.109375l1.1875 0.921875q-1.421875 2.171875 -4.25 2.171875zm-0.25 -10.09375q-1.15625 0 -1.953125 0.84375q-0.796875 0.84375 -0.984375 2.375l5.65625 0l0 -0.140625q-0.09375 -1.46875 -0.796875 -2.265625q-0.703125 -0.8125 -1.921875 -0.8125zm13.424377 6.90625q0 -0.78125 -0.59375 -1.21875q-0.578125 -0.4375 -2.046875 -0.75q-1.453125 -0.3125 -2.3125 -0.75q-0.859375 -0.4375 -1.28125 -1.03125q-0.40625 -0.609375 -0.40625 -1.4375q0 -1.390625 1.171875 -2.34375q1.171875 -0.953125 3.0 -0.953125q1.90625 0 3.09375 0.984375q1.203125 0.984375 1.203125 2.53125l-1.9375 0q0 -0.796875 -0.671875 -1.359375q-0.671875 -0.578125 -1.6875 -0.578125q-1.0625 0 -1.65625 0.453125q-0.59375 0.453125 -0.59375 1.203125q0 0.6875 0.546875 1.046875q0.5625 0.359375 2.0 0.6875q1.453125 0.3125 2.34375 0.765625q0.890625 0.4375 1.328125 1.078125q0.4375 0.625 0.4375 1.53125q0 1.515625 -1.21875 2.421875q-1.203125 0.90625 -3.125 0.90625q-1.359375 0 -2.40625 -0.46875q-1.03125 -0.484375 -1.625 -1.34375q-0.59375 -0.859375 -0.59375 -1.859375l1.9375 0q0.046875 0.96875 0.765625 1.546875q0.734375 0.5625 1.921875 0.5625q1.09375 0 1.75 -0.4375q0.65625 -0.453125 0.65625 -1.1875zm8.966064 1.625q1.03125 0 1.796875 -0.625q0.765625 -0.625 0.859375 -1.5625l1.8125 0q-0.046875 0.96875 -0.671875 1.84375q-0.609375 0.875 -1.640625 1.390625q-1.015625 0.515625 -2.15625 0.515625q-2.3125 0 -3.671875 -1.53125q-1.359375 -1.53125 -1.359375 -4.203125l0 -0.328125q0 -1.640625 0.609375 -2.921875q0.609375 -1.28125 1.734375 -1.984375q1.125 -0.703125 2.671875 -0.703125q1.890625 0 3.140625 1.140625q1.265625 1.125 1.34375 2.9375l-1.8125 0q-0.09375 -1.09375 -0.84375 -1.796875q-0.734375 -0.703125 -1.828125 -0.703125q-1.46875 0 -2.28125 1.0625q-0.796875 1.046875 -0.796875 3.046875l0 0.359375q0 1.953125 0.796875 3.015625q0.796875 1.046875 2.296875 1.046875zm12.085815 -8.1875q-0.4375 -0.0625 -0.953125 -0.0625q-1.890625 0 -2.5625 1.609375l0 8.0l-1.9375 0l0 -11.265625l1.875 0l0.03125 1.296875q0.953125 -1.5 2.6875 -1.5q0.5625 0 0.859375 0.140625l0 1.78125zm3.857605 9.546875l-1.921875 0l0 -11.265625l1.921875 0l0 11.265625zm-2.078125 -14.25q0 -0.46875 0.28125 -0.796875q0.296875 -0.328125 0.859375 -0.328125q0.5625 0 0.84375 0.328125q0.296875 0.328125 0.296875 0.796875q0 0.46875 -0.296875 0.78125q-0.28125 0.3125 -0.84375 0.3125q-0.5625 0 -0.859375 -0.3125q-0.28125 -0.3125 -0.28125 -0.78125zm14.675842 8.734375q0 2.578125 -1.171875 4.15625q-1.171875 1.5625 -3.1875 1.5625q-2.046875 0 -3.21875 -1.296875l0 5.421875l-1.9375 0l0 -15.59375l1.765625 0l0.09375 1.25q1.171875 -1.453125 3.265625 -1.453125q2.03125 0 3.203125 1.53125q1.1875 1.515625 1.1875 4.25l0 0.171875zm-1.921875 -0.21875q0 -1.90625 -0.8125 -3.0q-0.8125 -1.109375 -2.21875 -1.109375q-1.75 0 -2.625 1.546875l0 5.390625q0.859375 1.546875 2.640625 1.546875q1.390625 0 2.203125 -1.09375q0.8125 -1.109375 0.8125 -3.28125zm6.9970703 -8.265625l0 2.734375l2.09375 0l0 1.484375l-2.09375 0l0 6.984375q0 0.6875 0.28125 1.03125q0.28125 0.328125 0.953125 0.328125q0.328125 0 0.921875 -0.125l0 1.5625q-0.765625 0.203125 -1.484375 0.203125q-1.296875 0 -1.953125 -0.78125q-0.65625 -0.78125 -0.65625 -2.21875l0 -6.984375l-2.046875 0l0 -1.484375l2.046875 0l0 -2.734375l1.9375 0zm6.435791 14.0l-1.921875 0l0 -11.265625l1.921875 0l0 11.265625zm-2.078125 -14.25q0 -0.46875 0.28125 -0.796875q0.296875 -0.328125 0.859375 -0.328125q0.5625 0 0.84375 0.328125q0.296875 0.328125 0.296875 0.796875q0 0.46875 -0.296875 0.78125q-0.28125 0.3125 -0.84375 0.3125q-0.5625 0 -0.859375 -0.3125q-0.28125 -0.3125 -0.28125 -0.78125zm4.6602173 8.515625q0 -1.65625 0.640625 -2.984375q0.65625 -1.328125 1.8125 -2.03125q1.171875 -0.71875 2.65625 -0.71875q2.296875 0 3.71875 1.59375q1.421875 1.578125 1.421875 4.234375l0 0.125q0 1.65625 -0.625 2.96875q-0.625 1.296875 -1.796875 2.03125q-1.171875 0.71875 -2.703125 0.71875q-2.28125 0 -3.703125 -1.59375q-1.421875 -1.59375 -1.421875 -4.21875l0 -0.125zm1.9375 0.21875q0 1.875 0.859375 3.015625q0.875 1.140625 2.328125 1.140625q1.46875 0 2.328125 -1.15625q0.875 -1.15625 0.875 -3.21875q0 -1.859375 -0.890625 -3.0q-0.875 -1.15625 -2.328125 -1.15625q-1.421875 0 -2.296875 1.140625q-0.875 1.125 -0.875 3.234375zm12.554321 -5.75l0.0625 1.40625q1.296875 -1.609375 3.375 -1.609375q3.578125 0 3.609375 4.015625l0 7.453125l-1.9375 0l0 -7.453125q0 -1.21875 -0.546875 -1.796875q-0.546875 -0.59375 -1.703125 -0.59375q-0.9375 0 -1.65625 0.5q-0.703125 0.5 -1.09375 1.3125l0 8.03125l-1.9375 0l0 -11.265625l1.828125 0z" fill-rule="nonzero"/><path fill="#505050" d="m672.31635 303.74884l0 0c0 -5.4768066 5.288391 -9.916626 11.811951 -9.916626l0 0c6.5234985 0 11.81189 4.4398193 11.81189 9.916626l0 0c0 5.4768066 -5.288391 9.916626 -11.81189 9.916626l0 0c-6.5235596 0 -11.811951 -4.4398193 -11.811951 -9.916626z" fill-rule="evenodd"/><path fill="#000000" fill-opacity="0.0" d="m695.9402 402.44794l0 0c0 -3.349121 2.7149658 -6.064087 6.064087 -6.064087l148.39154 0c1.6082764 0 3.1507568 0.6388855 4.287964 1.776123c1.1372681 1.1372375 1.776123 2.679657 1.776123 4.287964l0 24.255585c0 3.349121 -2.7149658 6.064087 -6.064087 6.064087l-148.39154 0c-3.349121 0 -6.064087 -2.7149658 -6.064087 -6.064087z" fill-rule="evenodd"/><path fill="#980000" d="m729.62256 417.24323q-0.28125 2.40625 -1.78125 3.71875q-1.484375 1.296875 -3.953125 1.296875q-2.6875 0 -4.3125 -1.921875q-1.625 -1.921875 -1.625 -5.15625l0 -1.453125q0 -2.125 0.75 -3.71875q0.765625 -1.609375 2.140625 -2.46875q1.390625 -0.859375 3.21875 -0.859375q2.421875 0 3.875 1.359375q1.453125 1.34375 1.6875 3.71875l-2.0 0q-0.265625 -1.796875 -1.140625 -2.609375q-0.859375 -0.8125 -2.421875 -0.8125q-1.921875 0 -3.015625 1.421875q-1.078125 1.40625 -1.078125 4.015625l0 1.46875q0 2.46875 1.03125 3.9375q1.03125 1.453125 2.890625 1.453125q1.65625 0 2.546875 -0.75q0.890625 -0.765625 1.1875 -2.640625l2.0 0zm9.397644 3.703125q-1.125 1.3125 -3.3125 1.3125q-1.796875 0 -2.75 -1.046875q-0.9375 -1.046875 -0.9375 -3.09375l0 -7.328125l1.921875 0l0 7.28125q0 2.5625 2.078125 2.5625q2.21875 0 2.9375 -1.65625l0 -8.1875l1.9375 0l0 11.265625l-1.84375 0l-0.03125 -1.109375zm10.241943 -8.4375q-0.4375 -0.0625 -0.953125 -0.0625q-1.890625 0 -2.5625 1.609375l0 8.0l-1.9375 0l0 -11.265625l1.875 0l0.03125 1.296875q0.953125 -1.5 2.6875 -1.5q0.5625 0 0.859375 0.140625l0 1.78125zm8.315918 9.546875q-0.171875 -0.328125 -0.28125 -1.1875q-1.34375 1.390625 -3.203125 1.390625q-1.671875 0 -2.734375 -0.9375q-1.0625 -0.9375 -1.0625 -2.390625q0 -1.765625 1.328125 -2.734375q1.34375 -0.96875 3.765625 -0.96875l1.875 0l0 -0.890625q0 -1.015625 -0.609375 -1.609375q-0.59375 -0.59375 -1.765625 -0.59375q-1.03125 0 -1.734375 0.515625q-0.703125 0.515625 -0.703125 1.265625l-1.9375 0q0 -0.84375 0.59375 -1.625q0.609375 -0.796875 1.625 -1.25q1.03125 -0.453125 2.265625 -0.453125q1.953125 0 3.046875 0.96875q1.109375 0.96875 1.15625 2.671875l0 5.1875q0 1.5625 0.390625 2.46875l0 0.171875l-2.015625 0zm-3.203125 -1.46875q0.90625 0 1.71875 -0.46875q0.8125 -0.46875 1.171875 -1.21875l0 -2.3125l-1.5 0q-3.546875 0 -3.546875 2.078125q0 0.90625 0.59375 1.421875q0.609375 0.5 1.5625 0.5zm10.460754 -12.53125l0 2.734375l2.09375 0l0 1.484375l-2.09375 0l0 6.984375q0 0.6875 0.28125 1.03125q0.28125 0.328125 0.953125 0.328125q0.328125 0 0.921875 -0.125l0 1.5625q-0.765625 0.203125 -1.484375 0.203125q-1.296875 0 -1.953125 -0.78125q-0.65625 -0.78125 -0.65625 -2.21875l0 -6.984375l-2.046875 0l0 -1.484375l2.046875 0l0 -2.734375l1.9375 0zm6.435791 14.0l-1.921875 0l0 -11.265625l1.921875 0l0 11.265625zm-2.078125 -14.25q0 -0.46875 0.28125 -0.796875q0.296875 -0.328125 0.859375 -0.328125q0.5625 0 0.84375 0.328125q0.296875 0.328125 0.296875 0.796875q0 0.46875 -0.296875 0.78125q-0.28125 0.3125 -0.84375 0.3125q-0.5625 0 -0.859375 -0.3125q-0.28125 -0.3125 -0.28125 -0.78125zm4.6602173 8.515625q0 -1.65625 0.640625 -2.984375q0.65625 -1.328125 1.8125 -2.03125q1.171875 -0.71875 2.65625 -0.71875q2.296875 0 3.71875 1.59375q1.421875 1.578125 1.421875 4.234375l0 0.125q0 1.65625 -0.625 2.96875q-0.625 1.296875 -1.796875 2.03125q-1.171875 0.71875 -2.703125 0.71875q-2.28125 0 -3.703125 -1.59375q-1.421875 -1.59375 -1.421875 -4.21875l0 -0.125zm1.9375 0.21875q0 1.875 0.859375 3.015625q0.875 1.140625 2.328125 1.140625q1.46875 0 2.328125 -1.15625q0.875 -1.15625 0.875 -3.21875q0 -1.859375 -0.890625 -3.0q-0.875 -1.15625 -2.328125 -1.15625q-1.421875 0 -2.296875 1.140625q-0.875 1.125 -0.875 3.234375zm12.554321 -5.75l0.0625 1.40625q1.296875 -1.609375 3.375 -1.609375q3.578125 0 3.609375 4.015625l0 7.453125l-1.9375 0l0 -7.453125q0 -1.21875 -0.546875 -1.796875q-0.546875 -0.59375 -1.703125 -0.59375q-0.9375 0 -1.65625 0.5q-0.703125 0.5 -1.09375 1.3125l0 8.03125l-1.9375 0l0 -11.265625l1.828125 0z" fill-rule="nonzero"/><path fill="#505050" d="m672.31635 414.57574l0 0c0 -5.4768066 5.288391 -9.9166565 11.811951 -9.9166565l0 0c6.5234985 0 11.81189 4.43985 11.81189 9.9166565l0 0c0 5.476776 -5.288391 9.916626 -11.81189 9.916626l0 0c-6.5235596 0 -11.811951 -4.43985 -11.811951 -9.916626z" fill-rule="evenodd"/><path fill="#000000" fill-opacity="0.0" d="m695.9402 506.67514l0 0c0 -3.349121 2.7149658 -6.064087 6.064087 -6.064087l148.39154 0c1.6082764 0 3.1507568 0.6388855 4.287964 1.776123c1.1372681 1.1372375 1.776123 2.679657 1.776123 4.287964l0 24.255585c0 3.349121 -2.7149658 6.064087 -6.064087 6.064087l-148.39154 0c-3.349121 0 -6.064087 -2.7149658 -6.064087 -6.064087z" fill-rule="evenodd"/><path fill="#980000" d="m720.48193 524.64233l7.1875 0l0 1.640625l-9.1875 0l0 -15.1562805l2.0 0l0 13.5156555zm16.13263 1.640625q-0.171875 -0.328125 -0.28125 -1.1875q-1.34375 1.390625 -3.203125 1.390625q-1.671875 0 -2.734375 -0.9375q-1.0625 -0.9375 -1.0625 -2.390625q0 -1.765625 1.328125 -2.734375q1.34375 -0.96875 3.765625 -0.96875l1.875 0l0 -0.890625q0 -1.015625 -0.609375 -1.609375q-0.59375 -0.59375 -1.765625 -0.59375q-1.03125 0 -1.734375 0.515625q-0.703125 0.515625 -0.703125 1.265625l-1.9375 0q0 -0.84375 0.59375 -1.625q0.609375 -0.796875 1.625 -1.25q1.03125 -0.453125 2.265625 -0.453125q1.953125 0 3.046875 0.96875q1.109375 0.96875 1.15625 2.671875l0 5.1875q0 1.5625 0.390625 2.46875l0 0.171875l-2.015625 0zm-3.203125 -1.46875q0.90625 0 1.71875 -0.46875q0.8125 -0.46875 1.171875 -1.21875l0 -2.3125l-1.5 0q-3.546875 0 -3.546875 2.078125q0 0.90625 0.59375 1.421875q0.609375 0.5 1.5625 0.5zm17.382568 -4.046875q0 2.59375 -1.1875 4.15625q-1.1875 1.5625 -3.1875 1.5625q-2.140625 0 -3.296875 -1.5l-0.09375 1.296875l-1.78125 0l0 -16.00003l1.9375 0l0 5.9687805q1.15625 -1.4375 3.203125 -1.4375q2.0625 0 3.234375 1.546875q1.171875 1.546875 1.171875 4.25l0 0.15625zm-1.921875 -0.21875q0 -1.96875 -0.765625 -3.03125q-0.765625 -1.078125 -2.1875 -1.078125q-1.90625 0 -2.734375 1.765625l0 4.875q0.875 1.78125 2.75 1.78125q1.390625 0 2.15625 -1.078125q0.78125 -1.078125 0.78125 -3.234375zm9.02832 5.9375q-2.296875 0 -3.734375 -1.5q-1.4375 -1.5 -1.4375 -4.03125l0 -0.34375q0 -1.6875 0.640625 -3.0q0.640625 -1.3125 1.78125 -2.046875q1.15625 -0.75 2.5 -0.75q2.203125 0 3.421875 1.453125q1.21875 1.4375 1.21875 4.125l0 0.8125l-7.640625 0q0.046875 1.65625 0.96875 2.6875q0.9375 1.03125 2.375 1.03125q1.03125 0 1.734375 -0.421875q0.703125 -0.421875 1.234375 -1.109375l1.1875 0.921875q-1.421875 2.171875 -4.25 2.171875zm-0.25 -10.09375q-1.15625 0 -1.953125 0.84375q-0.796875 0.84375 -0.984375 2.375l5.65625 0l0 -0.140625q-0.09375 -1.46875 -0.796875 -2.265625q-0.703125 -0.8125 -1.921875 -0.8125zm8.955566 9.890625l-1.921875 0l0 -16.00003l1.921875 0l0 16.00003zm5.1758423 0l-1.921875 0l0 -11.265625l1.921875 0l0 11.265625zm-2.078125 -14.25q0 -0.46878052 0.28125 -0.7969055q0.296875 -0.328125 0.859375 -0.328125q0.5625 0 0.84375 0.328125q0.296875 0.328125 0.296875 0.7969055q0 0.46875 -0.296875 0.78125q-0.28125 0.3125 -0.84375 0.3125q-0.5625 0 -0.859375 -0.3125q-0.28125 -0.3125 -0.28125 -0.78125zm6.9883423 2.984375l0.0625 1.40625q1.296875 -1.609375 3.375 -1.609375q3.578125 0 3.609375 4.015625l0 7.453125l-1.9375 0l0 -7.453125q0 -1.21875 -0.546875 -1.796875q-0.546875 -0.59375 -1.703125 -0.59375q-0.9375 0 -1.65625 0.5q-0.703125 0.5 -1.09375 1.3125l0 8.03125l-1.9375 0l0 -11.265625l1.828125 0zm9.486694 5.53125q0 -2.625 1.21875 -4.171875q1.21875 -1.5625 3.234375 -1.5625q2.0625 0 3.21875 1.453125l0.09375 -1.25l1.75 0l0 11.0q0 2.1875 -1.296875 3.4375q-1.296875 1.265625 -3.484375 1.265625q-1.21875 0 -2.390625 -0.53125q-1.15625 -0.515625 -1.765625 -1.421875l1.0 -1.15625q1.234375 1.53125 3.03125 1.53125q1.40625 0 2.1875 -0.796875q0.78125 -0.78125 0.78125 -2.21875l0 -0.96875q-1.15625 1.328125 -3.15625 1.328125q-1.96875 0 -3.203125 -1.59375q-1.21875 -1.59375 -1.21875 -4.34375zm1.9375 0.21875q0 1.90625 0.78125 3.0q0.78125 1.09375 2.1875 1.09375q1.828125 0 2.671875 -1.65625l0 -5.15625q-0.875 -1.609375 -2.65625 -1.609375q-1.40625 0 -2.203125 1.09375q-0.78125 1.09375 -0.78125 3.234375z" fill-rule="nonzero"/><path fill="#505050" d="m672.31635 518.8029l0 0c0 -5.4768066 5.288391 -9.916626 11.811951 -9.916626l0 0c6.5234985 0 11.81189 4.4398193 11.81189 9.916626l0 0c0 5.4768066 -5.288391 9.916626 -11.81189 9.916626l0 0c-6.5235596 0 -11.811951 -4.4398193 -11.811951 -9.916626z" fill-rule="evenodd"/></g></svg>